<svg width="38" height="38" viewBox="0 0 38 38" fill="none" xmlns="http://www.w3.org/2000/svg">
<g clip-path="url(#clip0_454_243)">
<path d="M4.07143 38C2.97817 38 2.02629 37.5947 1.21577 36.7842C0.405258 35.9737 0 35.0218 0 33.9286V4.07143C0 2.95179 0.405258 1.9933 1.21577 1.19598C2.02629 0.398662 2.97817 0 4.07143 0H33.9286C35.0482 0 36.0067 0.398662 36.804 1.19598C37.6013 1.9933 38 2.95179 38 4.07143V33.9286C38 35.0218 37.6013 35.9737 36.804 36.7842C36.0067 37.5947 35.0482 38 33.9286 38H4.07143ZM4.07143 33.9286H10.8571V24.4286H9.5C9.11548 24.4286 8.79315 24.2985 8.53304 24.0384C8.27292 23.7783 8.14286 23.456 8.14286 23.0714V4.07143H4.07143V33.9286ZM27.1429 33.9286H33.9286V4.07143H29.8571V23.0714C29.8571 23.456 29.7271 23.7783 29.467 24.0384C29.2068 24.2985 28.8845 24.4286 28.5 24.4286H27.1429V33.9286ZM13.5714 33.9286H24.4286V24.4286H23.0714C22.6869 24.4286 22.3646 24.2985 22.1045 24.0384C21.8443 23.7783 21.7143 23.456 21.7143 23.0714V4.07143H16.2857V23.0714C16.2857 23.456 16.1557 23.7783 15.8955 24.0384C15.6354 24.2985 15.3131 24.4286 14.9286 24.4286H13.5714V33.9286Z" fill="#B3B3B3"/>
</g>
<rect x="2" y="2" width="34" height="34" rx="2" stroke="#B3B3B3" stroke-width="4" stroke-linejoin="round"/>
<defs>
<clipPath id="clip0_454_243">
<rect width="38" height="38" rx="4" fill="white"/>
</clipPath>
</defs>
</svg>
