<svg width="56" height="56" viewBox="0 0 56 56" fill="none" xmlns="http://www.w3.org/2000/svg">
<path d="M12 0.5H44C50.3513 0.500001 55.5 5.64873 55.5 12V44C55.5 50.3513 50.3513 55.5 44 55.5H12C5.64873 55.5 0.5 50.3513 0.5 44V12C0.500001 5.64873 5.64873 0.5 12 0.5Z" fill="#1A1A1A"/>
<path d="M12 0.5H44C50.3513 0.500001 55.5 5.64873 55.5 12V44C55.5 50.3513 50.3513 55.5 44 55.5H12C5.64873 55.5 0.5 50.3513 0.5 44V12C0.500001 5.64873 5.64873 0.5 12 0.5Z" stroke="#444444"/>
<path d="M16 40V16H20V40H16ZM24 40L44 28L24 16V40ZM28 32.95V23.05L36.25 28L28 32.95Z" fill="#B3B3B3"/>
</svg>
