<svg width="12" height="12" viewBox="0 0 12 12" fill="none" xmlns="http://www.w3.org/2000/svg">
<g clip-path="url(#clip0_401_40)">
<path d="M11.874 2.241C11.747 2.179 11.692 2.2975 11.618 2.358C11.5925 2.3775 11.571 2.403 11.5495 2.426C11.3635 2.6245 11.1465 2.7545 10.863 2.739C10.4485 2.716 10.0945 2.846 9.78148 3.163C9.71498 2.772 9.49398 2.539 9.15798 2.389C8.98198 2.311 8.80398 2.2335 8.68048 2.064C8.59448 1.9435 8.57098 1.809 8.52798 1.677C8.50048 1.597 8.47298 1.5155 8.38148 1.502C8.28148 1.4865 8.24247 1.57 8.20347 1.64C8.04698 1.926 7.98647 2.241 7.99247 2.56C8.00597 3.278 8.30898 3.85 8.91148 4.2565C8.97998 4.303 8.99748 4.35 8.97598 4.418C8.93498 4.558 8.88598 4.694 8.84298 4.8345C8.81548 4.924 8.77448 4.943 8.67848 4.9045C8.3541 4.7651 8.05946 4.56482 7.81047 4.3145C7.38197 3.9005 6.99497 3.4435 6.51197 3.0855C6.40006 3.00281 6.28515 2.92426 6.16747 2.85C5.67497 2.3715 6.23247 1.9785 6.36147 1.932C6.49647 1.883 6.40797 1.716 5.97197 1.718C5.53597 1.72 5.13697 1.8655 4.62847 2.06C4.55291 2.08896 4.47517 2.11186 4.39597 2.1285C3.92079 2.03897 3.4348 2.02177 2.95447 2.0775C2.01197 2.1825 1.25947 2.6285 0.705975 3.389C0.0409748 4.303 -0.115525 5.342 0.0759748 6.425C0.277475 7.567 0.860475 8.5125 1.75597 9.2515C2.68497 10.018 3.75447 10.3935 4.97497 10.3215C5.71597 10.279 6.54147 10.1795 7.47197 9.3915C7.70697 9.5085 7.95298 9.555 8.36198 9.59C8.67698 9.6195 8.97998 9.575 9.21448 9.526C9.58198 9.448 9.55647 9.1075 9.42397 9.0455C8.34648 8.5435 8.58298 8.748 8.36748 8.5825C8.91548 7.9345 9.74048 7.2615 10.0635 5.081C10.0885 4.9075 10.067 4.7985 10.0635 4.6585C10.0615 4.5735 10.081 4.54 10.1785 4.5305C10.449 4.50244 10.7114 4.42176 10.951 4.293C11.649 3.9115 11.931 3.2855 11.9975 2.5345C12.0075 2.4195 11.9955 2.3015 11.874 2.241ZM5.79047 9C4.74597 8.179 4.23947 7.9085 4.03047 7.92C3.83447 7.932 3.86997 8.1555 3.91297 8.3015C3.95797 8.4455 4.01647 8.5445 4.09847 8.671C4.15547 8.7545 4.19447 8.879 4.04197 8.9725C3.70547 9.1805 3.12097 8.9025 3.09347 8.889C2.41297 8.488 1.84347 7.959 1.44297 7.2355C1.05597 6.539 0.830975 5.792 0.793975 4.9945C0.783975 4.8015 0.840475 4.7335 1.03247 4.6985C1.28453 4.65027 1.54279 4.64368 1.79697 4.679C2.86297 4.835 3.76997 5.3115 4.53097 6.066C4.96497 6.496 5.29347 7.0095 5.63197 7.5115C5.99197 8.0445 6.37897 8.5525 6.87197 8.9685C7.04597 9.1145 7.18447 9.2255 7.31747 9.307C6.91647 9.352 6.24747 9.362 5.79047 9ZM6.29047 5.78C6.29039 5.75516 6.29635 5.73068 6.30784 5.70866C6.31934 5.68664 6.33602 5.66775 6.35645 5.65362C6.37688 5.6395 6.40044 5.63056 6.4251 5.62757C6.44975 5.62459 6.47477 5.62765 6.49797 5.6365C6.52756 5.64711 6.55309 5.66669 6.57101 5.6925C6.58894 5.71831 6.59836 5.74908 6.59797 5.7805C6.59804 5.8008 6.59407 5.82092 6.58629 5.83967C6.5785 5.85842 6.56706 5.87544 6.55264 5.88973C6.53821 5.90401 6.52108 5.91529 6.50226 5.92289C6.48343 5.93049 6.46328 5.93427 6.44297 5.934C6.42283 5.93407 6.40286 5.93012 6.38426 5.92238C6.36566 5.91464 6.34878 5.90327 6.33463 5.88893C6.32048 5.87458 6.30932 5.85756 6.30183 5.83886C6.29433 5.82016 6.29014 5.80015 6.29047 5.78ZM7.84547 6.578C7.74547 6.6185 7.64597 6.6535 7.55047 6.658C7.4068 6.66301 7.26582 6.61814 7.15147 6.531C7.01447 6.416 6.91647 6.352 6.87547 6.152C6.86134 6.05426 6.86405 5.95482 6.88347 5.858C6.91847 5.6945 6.87947 5.5895 6.76397 5.4945C6.67047 5.4165 6.55097 5.395 6.41997 5.395C6.37512 5.3924 6.33156 5.37902 6.29297 5.356C6.23797 5.329 6.19297 5.261 6.23597 5.177C6.24997 5.15 6.31597 5.084 6.33197 5.072C6.50997 4.971 6.71547 5.004 6.90497 5.08C7.08097 5.152 7.21397 5.284 7.40547 5.471C7.60097 5.6965 7.63647 5.759 7.74797 5.928C7.83597 6.0605 7.91597 6.1965 7.97047 6.352C8.00397 6.4495 7.96097 6.529 7.84547 6.578Z" fill="#B3B3B3"/>
</g>
<defs>
<clipPath id="clip0_401_40">
<rect width="12" height="12" fill="white"/>
</clipPath>
</defs>
</svg>
