<svg width="38" height="38" viewBox="0 0 38 38" fill="none" xmlns="http://www.w3.org/2000/svg">
<rect x="2" y="2" width="34" height="34" rx="2" stroke="#B3B3B3" stroke-width="4" stroke-linejoin="round"/>
<path d="M20.6923 12.2308H19.8462V8.84615C19.8462 8.37887 19.4673 8 19 8C18.5327 8 18.1538 8.37887 18.1538 8.84615V12.2308H17.3077C16.3744 12.2308 15.6154 12.9898 15.6154 13.9231V15.6154C15.6154 16.5487 16.3744 17.3077 17.3077 17.3077H18.1538V29.1538C18.1538 29.6211 18.5327 30 19 30C19.4673 30 19.8462 29.6211 19.8462 29.1538V17.3077H20.6923C21.6256 17.3077 22.3846 16.5487 22.3846 15.6154V13.9231C22.3846 12.9898 21.6256 12.2308 20.6923 12.2308ZM20.6923 15.6154H17.3077V13.9231H20.6923V15.6154ZM28.3077 20.6923H27.4615V8.84615C27.4615 8.37887 27.0827 8 26.6154 8C26.1481 8 25.7692 8.37887 25.7692 8.84615V20.6923H24.9231C23.9898 20.6923 23.2308 21.4513 23.2308 22.3846V24.0769C23.2308 25.0102 23.9898 25.7692 24.9231 25.7692H25.7692V29.1538C25.7692 29.6211 26.1481 30 26.6154 30C27.0827 30 27.4615 29.6211 27.4615 29.1538V25.7692H28.3077C29.241 25.7692 30 25.0102 30 24.0769V22.3846C30 21.4513 29.241 20.6923 28.3077 20.6923ZM28.3077 24.0769H24.9231V22.3846H28.3077V24.0769ZM13.0769 20.6923H12.2308V8.84615C12.2308 8.37887 11.8519 8 11.3846 8C10.9173 8 10.5385 8.37887 10.5385 8.84615V20.6923H9.69231C8.759 20.6923 8 21.4513 8 22.3846V24.0769C8 25.0102 8.759 25.7692 9.69231 25.7692H10.5385V29.1538C10.5385 29.6211 10.9173 30 11.3846 30C11.8519 30 12.2308 29.6211 12.2308 29.1538V25.7692H13.0769C14.0102 25.7692 14.7692 25.0102 14.7692 24.0769V22.3846C14.7692 21.4513 14.0102 20.6923 13.0769 20.6923ZM13.0769 24.0769H9.69231V22.3846H13.0769V24.0769Z" fill="#B3B3B3"/>
</svg>
