<svg width="512" height="683" viewBox="0 0 512 683" fill="none" xmlns="http://www.w3.org/2000/svg">
<path d="M448.443 0H148.531C143.229 0 138.141 2.10937 134.391 5.85937L5.85937 134.391C2.10937 138.141 0 143.229 0 148.531V619.823C0 654.474 28.1927 682.667 62.8438 682.667H448.443C482.995 682.667 511.286 654.729 511.286 619.823V62.8438C511.286 28.2917 483.354 0 448.443 0ZM149.953 46.8594V127.109C149.953 139.708 139.708 149.953 127.109 149.953H46.8594L149.953 46.8594ZM471.286 619.823C471.286 632.266 461.229 642.667 448.443 642.667H62.8438C50.25 642.667 40 632.417 40 619.823V189.958H127.109C161.76 189.958 189.953 161.766 189.953 127.115V40H448.443C460.885 40 471.286 50.0625 471.286 62.8438V619.823Z" fill="#B3B3B3"/>
<path d="M448.443 0H148.531C143.229 0 138.141 2.10937 134.391 5.85937L5.85937 134.391C2.10937 138.141 0 143.229 0 148.531V619.823C0 654.474 28.1927 682.667 62.8438 682.667H448.443C482.995 682.667 511.286 654.729 511.286 619.823V62.8438C511.286 28.2917 483.354 0 448.443 0ZM149.953 46.8594V127.109C149.953 139.708 139.708 149.953 127.109 149.953H46.8594L149.953 46.8594ZM471.286 619.823C471.286 632.266 461.229 642.667 448.443 642.667H62.8438C50.25 642.667 40 632.417 40 619.823V189.958H127.109C161.76 189.958 189.953 161.766 189.953 127.115V40H448.443C460.885 40 471.286 50.0625 471.286 62.8438V619.823Z" fill="#B3B3B3"/>
<path d="M118.991 345.768C113.427 345.778 108.093 348.43 104.158 353.144C100.223 357.857 98.0086 364.247 98 370.913V417.552C98 424.212 100.209 430.599 104.14 435.308C108.071 440.018 113.403 442.663 118.963 442.663C124.523 442.663 129.855 440.018 133.786 435.308C137.718 430.599 139.926 424.212 139.926 417.552V370.913C139.931 364.254 137.728 357.866 133.803 353.151C129.877 348.436 124.55 345.781 118.991 345.768Z" fill="#B3B3B3"/>
<path d="M187.494 306.361C181.93 306.371 176.595 309.023 172.661 313.737C168.726 318.45 166.512 324.84 166.503 331.505V456.959C166.503 463.619 168.712 470.006 172.643 474.715C176.574 479.425 181.906 482.07 187.466 482.07C193.026 482.07 198.358 479.425 202.289 474.715C206.221 470.006 208.429 463.619 208.429 456.959V331.505C208.434 324.847 206.231 318.458 202.306 313.744C198.38 309.029 193.053 306.374 187.494 306.361Z" fill="#B3B3B3"/>
<path d="M255.997 212C250.432 212.01 245.098 214.663 241.163 219.376C237.229 224.09 235.014 230.479 235.006 237.145V551.32C234.994 554.631 235.529 557.911 236.579 560.973C237.629 564.036 239.174 566.82 241.124 569.165C243.074 571.511 245.392 573.372 247.944 574.642C250.497 575.912 253.233 576.566 255.997 576.566C258.761 576.566 261.497 575.912 264.049 574.642C266.602 573.372 268.919 571.511 270.87 569.165C272.82 566.82 274.365 564.036 275.415 560.973C276.464 557.911 276.999 554.631 276.988 551.32V237.145C276.979 230.479 274.765 224.09 270.83 219.376C266.896 214.663 261.562 212.01 255.997 212Z" fill="#B3B3B3"/>
<path d="M324.505 258.505C318.947 258.518 313.619 261.173 309.694 265.888C305.769 270.602 303.566 276.991 303.57 283.649V504.816C303.57 511.476 305.779 517.863 309.71 522.572C313.642 527.281 318.974 529.927 324.534 529.927C330.093 529.927 335.425 527.281 339.357 522.572C343.288 517.863 345.497 511.476 345.497 504.816V283.649C345.488 276.984 343.274 270.594 339.339 265.881C335.404 261.167 330.07 258.515 324.505 258.505Z" fill="#B3B3B3"/>
<path d="M393.009 299.534C387.45 299.547 382.123 302.202 378.197 306.917C374.272 311.631 372.07 318.02 372.074 324.678V463.786C372.074 470.446 374.282 476.833 378.214 481.542C382.145 486.252 387.477 488.897 393.037 488.897C398.597 488.897 403.929 486.252 407.86 481.542C411.792 476.833 414 470.446 414 463.786V324.678C413.992 318.013 411.777 311.623 407.842 306.91C403.908 302.196 398.573 299.544 393.009 299.534Z" fill="#B3B3B3"/>
</svg>
