<svg width="36" height="36" viewBox="0 0 36 36" fill="none" xmlns="http://www.w3.org/2000/svg">
<path d="M0 20V4C0 2.9 0.391667 1.95833 1.175 1.175C1.95833 0.391667 2.9 0 4 0H16V20H0ZM20 0H32C33.1 0 34.0417 0.391667 34.825 1.175C35.6083 1.95833 36 2.9 36 4V12H20V0ZM20 36V16H36V32C36 33.1 35.6083 34.0417 34.825 34.825C34.0417 35.6083 33.1 36 32 36H20ZM0 24H16V36H4C2.9 36 1.95833 35.6083 1.175 34.825C0.391667 34.0417 0 33.1 0 32V24ZM4 16H12V4H4V16ZM24 8H32V4H24V8ZM24 20V32H32V20H24ZM4 28V32H12V28H4Z" fill="#B3B3B3"/>
</svg>
