<svg width="38" height="38" viewBox="0 0 38 38" fill="none" xmlns="http://www.w3.org/2000/svg">
<rect x="2" y="2" width="34" height="34" rx="2" stroke="#B3B3B3" stroke-width="4" stroke-linejoin="round"/>
<path fill-rule="evenodd" clip-rule="evenodd" d="M18.7878 28.9037C16.7487 28.9037 15.5173 30.3367 15.2758 32.1539C8.95261 30.9318 5 25.8005 5 19.2805C5 11.861 11.173 5.84619 18.7878 5.84619C26.4026 5.84619 32.5756 11.861 32.5756 19.2805C32.5756 25.7362 28.7221 30.5939 22.4594 31.862C22.2577 30.5939 20.8097 28.9037 18.7878 28.9037ZM18.7513 26.2095C21.2392 26.2095 23.1959 27.7968 23.5836 28.7988C28.2804 27.7969 30.0018 22.663 30.0018 19.2805C30.0018 13.4177 24.499 8.18259 18.7878 8.18259C13.0767 8.18259 7.50084 13.4177 7.50084 19.2805C7.50084 24.4322 10.7801 28.2905 13.9921 29.0098C14.306 27.5478 16.2633 26.2094 18.7513 26.2094V26.2095Z" fill="#B3B3B3"/>
<path d="M11.5943 20.4485C12.5048 20.4485 13.2429 19.7294 13.2429 18.8422C13.2429 17.9551 12.5048 17.236 11.5943 17.236C10.6839 17.236 9.9458 17.9551 9.9458 18.8422C9.9458 19.7294 10.6839 20.4485 11.5943 20.4485Z" fill="#B3B3B3"/>
<path d="M13.8424 15.6303C14.7529 15.6303 15.4909 14.9111 15.4909 14.024C15.4909 13.1369 14.7529 12.4177 13.8424 12.4177C12.9319 12.4177 12.1938 13.1369 12.1938 14.024C12.1938 14.9111 12.9319 15.6303 13.8424 15.6303Z" fill="#B3B3B3"/>
<path d="M18.7879 13.7318C19.6984 13.7318 20.4365 13.0127 20.4365 12.1256C20.4365 11.2384 19.6984 10.5193 18.7879 10.5193C17.8775 10.5193 17.1394 11.2384 17.1394 12.1256C17.1394 13.0127 17.8775 13.7318 18.7879 13.7318Z" fill="#B3B3B3"/>
<path d="M23.7336 15.6303C24.6441 15.6303 25.3822 14.9111 25.3822 14.024C25.3822 13.1369 24.6441 12.4177 23.7336 12.4177C22.8232 12.4177 22.0851 13.1369 22.0851 14.024C22.0851 14.9111 22.8232 15.6303 23.7336 15.6303Z" fill="#B3B3B3"/>
<path d="M25.6816 20.3028C26.592 20.3028 27.3301 19.5836 27.3301 18.6965C27.3301 17.8094 26.592 17.0902 25.6816 17.0902C24.7711 17.0902 24.033 17.8094 24.033 18.6965C24.033 19.5836 24.7711 20.3028 25.6816 20.3028Z" fill="#B3B3B3"/>
</svg>
