<svg width="512" height="683" viewBox="0 0 512 683" fill="none" xmlns="http://www.w3.org/2000/svg">
<path d="M448.443 0H148.531C143.229 0 138.141 2.10937 134.391 5.85937L5.85937 134.391C2.10937 138.141 0 143.229 0 148.531V619.823C0 654.474 28.1927 682.667 62.8438 682.667H448.443C482.995 682.667 511.286 654.729 511.286 619.823V62.8438C511.286 28.2917 483.354 0 448.443 0ZM149.953 46.8594V127.109C149.953 139.708 139.708 149.953 127.109 149.953H46.8594L149.953 46.8594ZM471.286 619.823C471.286 632.266 461.229 642.667 448.443 642.667H62.8438C50.25 642.667 40 632.417 40 619.823V189.958H127.109C161.76 189.958 189.953 161.766 189.953 127.115V40H448.443C460.885 40 471.286 50.0625 471.286 62.8438V619.823Z" fill="#B3B3B3"/>
<path d="M448.443 0H148.531C143.229 0 138.141 2.10937 134.391 5.85937L5.85937 134.391C2.10937 138.141 0 143.229 0 148.531V619.823C0 654.474 28.1927 682.667 62.8438 682.667H448.443C482.995 682.667 511.286 654.729 511.286 619.823V62.8438C511.286 28.2917 483.354 0 448.443 0ZM149.953 46.8594V127.109C149.953 139.708 139.708 149.953 127.109 149.953H46.8594L149.953 46.8594ZM471.286 619.823C471.286 632.266 461.229 642.667 448.443 642.667H62.8438C50.25 642.667 40 632.417 40 619.823V189.958H127.109C161.76 189.958 189.953 161.766 189.953 127.115V40H448.443C460.885 40 471.286 50.0625 471.286 62.8438V619.823Z" fill="#B3B3B3"/>
<path d="M200.876 270.983V438.685C191.118 429.98 178.259 424.68 164.183 424.68C133.755 424.68 109 449.436 109 479.864C109 510.293 133.755 535.048 164.183 535.048C194.573 535.048 219.303 510.355 219.366 479.979H219.367V345.204L383.509 303.595V394.168C373.751 385.463 360.892 380.163 346.817 380.163C316.388 380.163 291.633 404.918 291.633 435.346C291.633 465.774 316.388 490.53 346.817 490.53C377.245 490.53 402 465.774 402 435.346V220L200.876 270.983Z" fill="#B3B3B3"/>
</svg>
