<svg width="48" height="48" viewBox="0 0 48 48" fill="none" xmlns="http://www.w3.org/2000/svg">
<path d="M0 15.3914L0 17.3044C0 18.361 1.34315 19.2175 3 19.2175H12C13.6569 19.2175 15 18.361 15 17.3044V15.3914C15 14.3348 13.6569 13.4783 12 13.4783H3C1.34315 13.4783 0 14.3348 0 15.3914Z" fill="#B3B3B3"/>
<path d="M4.50031 2.95652L4.50031 11.5652H10.5003V2.95652C10.5003 2.70284 10.3423 2.45954 10.061 2.28016C9.77966 2.10078 9.39813 2 9.00031 2H6.00031C5.60248 2 5.22095 2.10078 4.93965 2.28016C4.65834 2.45954 4.50031 2.70284 4.50031 2.95652Z" fill="#B3B3B3"/>
<path d="M10.5003 45.0435L10.5003 21.1305H4.50031L4.50031 45.0435C4.50031 45.2972 4.65834 45.5405 4.93965 45.7198C5.22095 45.8992 5.60248 46 6.00031 46H9.00031C9.39813 46 9.77966 45.8992 10.061 45.7198C10.3423 45.5405 10.5003 45.2972 10.5003 45.0435Z" fill="#B3B3B3"/>
<path d="M16 30.6957V32.6087C16 33.6652 17.3431 34.5217 19 34.5217H28C29.6569 34.5217 31 33.6652 31 32.6087V30.6957C31 29.6391 29.6569 28.7826 28 28.7826H19C17.3431 28.7826 16 29.6391 16 30.6957Z" fill="#B3B3B3"/>
<path d="M20.5002 2.95652V26.8696H26.5002V2.95652C26.5002 2.70283 26.3421 2.45954 26.0608 2.28015C25.7795 2.10077 25.398 2 25.0002 2H22.0002C21.6024 2 21.2208 2.10077 20.9395 2.28015C20.6582 2.45954 20.5002 2.70283 20.5002 2.95652Z" fill="#B3B3B3"/>
<path d="M26.5002 45.0435V36.4348H20.5002V45.0435C20.5002 45.2972 20.6582 45.5405 20.9395 45.7198C21.2208 45.8992 21.6024 46 22.0002 46H25.0002C25.398 46 25.7795 45.8992 26.0608 45.7198C26.3421 45.5405 26.5002 45.2972 26.5002 45.0435Z" fill="#B3B3B3"/>
<path d="M32 20.1739V22.087C32 23.1435 33.3431 24 35 24H44C45.6569 24 47 23.1435 47 22.087V20.1739C47 19.1174 45.6569 18.2609 44 18.2609H35C33.3431 18.2609 32 19.1174 32 20.1739Z" fill="#B3B3B3"/>
<path d="M38.0001 46H41.0001C41.3979 46 41.7795 45.8992 42.0608 45.7198C42.3421 45.5405 42.5001 45.2972 42.5001 45.0435V25.913H36.5001V45.0435C36.5001 45.2972 36.6582 45.5405 36.9395 45.7198C37.2208 45.8992 37.6023 46 38.0001 46Z" fill="#B3B3B3"/>
<path d="M36.5001 2.95652V16.3478H42.5001V2.95652C42.5001 2.70283 42.3421 2.45954 42.0608 2.28016C41.7795 2.10077 41.3979 2 41.0001 2H38.0001C37.6023 2 37.2208 2.10077 36.9395 2.28016C36.6582 2.45954 36.5001 2.70283 36.5001 2.95652Z" fill="#B3B3B3"/>
</svg>
