<svg width="48" height="48" viewBox="0 0 48 48" fill="none" xmlns="http://www.w3.org/2000/svg">
<path d="M34 40V8C34 7.46957 34.2107 6.96086 34.5858 6.58579C34.9609 6.21071 35.4696 6 36 6H40C40.5304 6 41.0391 6.21071 41.4142 6.58579C41.7893 6.96086 42 7.46957 42 8V40C42 40.5304 41.7893 41.0391 41.4142 41.4142C41.0391 41.7893 40.5304 42 40 42H36C35.4696 42 34.9609 41.7893 34.5858 41.4142C34.2107 41.0391 34 40.5304 34 40ZM22 42H26C26.5304 42 27.0391 41.7893 27.4142 41.4142C27.7893 41.0391 28 40.5304 28 40V8C28 7.46957 27.7893 6.96086 27.4142 6.58579C27.0391 6.21071 26.5304 6 26 6H22C21.4696 6 20.9609 6.21071 20.5858 6.58579C20.2107 6.96086 20 7.46957 20 8V40C20 40.5304 20.2107 41.0391 20.5858 41.4142C20.9609 41.7893 21.4696 42 22 42ZM8 42H12C12.5304 42 13.0391 41.7893 13.4142 41.4142C13.7893 41.0391 14 40.5304 14 40V8C14 7.46957 13.7893 6.96086 13.4142 6.58579C13.0391 6.21071 12.5304 6 12 6H8C7.46957 6 6.96086 6.21071 6.58579 6.58579C6.21071 6.96086 6 7.46957 6 8V40C6 40.5304 6.21071 41.0391 6.58579 41.4142C6.96086 41.7893 7.46957 42 8 42Z" fill="#B3B3B3"/>
</svg>
