<svg width="36" height="38" viewBox="0 0 36 38" fill="none" xmlns="http://www.w3.org/2000/svg">
<path d="M23.9258 0.5C25.1439 0.5 26.2041 1.41864 26.2041 2.63672V8.13672H32.2217C33.4398 8.13672 34.4998 9.05455 34.5 10.2725C34.5 11.4904 33.4406 12.409 32.2227 12.4092H32.1299V19C32.1299 25.5088 26.9589 30.8675 20.2773 31.8721V35.3633C20.2773 36.5813 19.2181 37.5 18 37.5C16.7819 37.5 15.7226 36.5814 15.7227 35.3633V31.8721C9.04113 30.8676 3.87012 25.5088 3.87012 19V12.4092H3.77734C2.55939 12.409 1.5 11.4904 1.5 10.2725C1.50016 9.05467 2.55948 8.13694 3.77734 8.13672H9.7959V2.63672C9.7959 1.41864 10.8561 0.5 12.0742 0.5C13.2923 0.500088 14.3516 1.4187 14.3516 2.63672V8.13672H21.6484V2.63672C21.6484 1.41867 22.7077 0.50005 23.9258 0.5ZM8.42578 19C8.42578 23.7986 12.6815 27.7725 18 27.7725C23.3185 27.7724 27.5742 23.7986 27.5742 19V12.4092H8.42578V19Z" fill="#B3B3B3" stroke="#B3B3B3"/>
</svg>
