<svg width="24" height="24" viewBox="0 0 24 24" fill="none" xmlns="http://www.w3.org/2000/svg">
<path d="M12 4C13.6569 4 15 5.34315 15 7C15 7.58072 14.8316 8.12076 14.5459 8.58008L19.0156 14.168C19.3242 14.0607 19.6549 14 20 14C21.6569 14 23 15.3431 23 17C23 18.6569 21.6569 20 20 20C18.3431 20 17 18.6569 17 17C17 16.4192 17.1673 15.8783 17.4531 15.4189L12.9834 9.83105C12.675 9.93818 12.3449 10 12 10C11.6548 10 11.3243 9.93837 11.0156 9.83105L6.5459 15.4189C6.83184 15.8784 7 16.419 7 17C7 18.6569 5.65685 20 4 20C2.34315 20 1 18.6569 1 17C1 15.3431 2.34315 14 4 14C4.3448 14 4.67505 14.0609 4.9834 14.168L9.45312 8.58008C9.16762 8.12085 9 7.58053 9 7C9 5.34315 10.3431 4 12 4Z" fill="#B3B3B3"/>
</svg>
