<svg width="24" height="24" viewBox="0 0 24 24" fill="none" xmlns="http://www.w3.org/2000/svg">
<path d="M9 13.5C8.725 13.5 8.48958 13.4021 8.29375 13.2063C8.09792 13.0104 8 12.775 8 12.5V7.5C8 7.225 8.09792 6.98958 8.29375 6.79375C8.48958 6.59792 8.725 6.5 9 6.5H9.5V5.5C9.5 4.80833 9.74375 4.21875 10.2312 3.73125C10.7187 3.24375 11.3083 3 12 3C12.6917 3 13.2812 3.24375 13.7687 3.73125C14.2562 4.21875 14.5 4.80833 14.5 5.5V6.5H15C15.275 6.5 15.5104 6.59792 15.7062 6.79375C15.9021 6.98958 16 7.225 16 7.5V12.5C16 12.775 15.9021 13.0104 15.7062 13.2063C15.5104 13.4021 15.275 13.5 15 13.5H9ZM9 12.5H15V7.5H9V12.5ZM12.7062 10.7063C12.9021 10.5104 13 10.275 13 10C13 9.725 12.9021 9.48958 12.7062 9.29375C12.5104 9.09792 12.275 9 12 9C11.725 9 11.4896 9.09792 11.2937 9.29375C11.0979 9.48958 11 9.725 11 10C11 10.275 11.0979 10.5104 11.2937 10.7063C11.4896 10.9021 11.725 11 12 11C12.275 11 12.5104 10.9021 12.7062 10.7063ZM10.5 6.5H13.5V5.5C13.5 5.08333 13.3542 4.72917 13.0625 4.4375C12.7708 4.14583 12.4167 4 12 4C11.5833 4 11.2292 4.14583 10.9375 4.4375C10.6458 4.72917 10.5 5.08333 10.5 5.5V6.5Z" fill="#B3B3B3"/>
<path d="M17 19L14.7778 22L14 20.95L14.875 19.75H9.125L10 20.95L9.22222 22L7 19L9.22222 16L10.0139 17.05L9.125 18.25H14.875L14 17.05L14.7778 16L17 19Z" fill="#B3B3B3"/>
</svg>
