<svg width="24" height="24" viewBox="0 0 24 24" fill="none" xmlns="http://www.w3.org/2000/svg">
<path d="M14 17.5C13.725 17.5 13.4896 17.4021 13.2937 17.2063C13.0979 17.0104 13 16.775 13 16.5V11.5C13 11.225 13.0979 10.9896 13.2937 10.7938C13.4896 10.5979 13.725 10.5 14 10.5H14.5V9.5C14.5 8.80833 14.7437 8.21875 15.2312 7.73125C15.7187 7.24375 16.3083 7 17 7C17.6917 7 18.2812 7.24375 18.7687 7.73125C19.2562 8.21875 19.5 8.80833 19.5 9.5V10.5H20C20.275 10.5 20.5104 10.5979 20.7062 10.7938C20.9021 10.9896 21 11.225 21 11.5V16.5C21 16.775 20.9021 17.0104 20.7062 17.2063C20.5104 17.4021 20.275 17.5 20 17.5H14ZM14 16.5H20V11.5H14V16.5ZM17.7062 14.7063C17.9021 14.5104 18 14.275 18 14C18 13.725 17.9021 13.4896 17.7062 13.2938C17.5104 13.0979 17.275 13 17 13C16.725 13 16.4896 13.0979 16.2937 13.2938C16.0979 13.4896 16 13.725 16 14C16 14.275 16.0979 14.5104 16.2937 14.7063C16.4896 14.9021 16.725 15 17 15C17.275 15 17.5104 14.9021 17.7062 14.7063ZM15.5 10.5H18.5V9.5C18.5 9.08333 18.3542 8.72917 18.0625 8.4375C17.7708 8.14583 17.4167 8 17 8C16.5833 8 16.2292 8.14583 15.9375 8.4375C15.6458 8.72917 15.5 9.08333 15.5 9.5V10.5Z" fill="#B3B3B3"/>
<path d="M7 17L4 14.7778L5.05 14L6.25 14.875V9.125L5.05 10L4 9.22222L7 7L10 9.22222L8.95 10.0139L7.75 9.125V14.875L8.95 14L10 14.7778L7 17Z" fill="#B3B3B3"/>
</svg>
