<svg width="48" height="48" viewBox="0 0 48 48" fill="none" xmlns="http://www.w3.org/2000/svg">
<g clip-path="url(#clip0_231_20)">
<path d="M13.5385 18.9744H21.2308V48H13.5385V18.9744Z" fill="#B3B3B3"/>
<path d="M26.7692 25.1283H34.4615V48.0001H26.7692V25.1283Z" fill="#B3B3B3"/>
<path d="M40 14.2565H47.6923V48.0001H40V14.2565Z" fill="#B3B3B3"/>
<path d="M0.307678 29.9487H7.99999V48H0.307678V29.9487Z" fill="#B3B3B3"/>
<path d="M43.5813 0C41.4303 0 39.6867 1.74246 39.6867 3.8919C39.6867 4.39497 39.7833 4.87528 39.9572 5.31662L32.4512 11.7108C31.9005 11.4126 31.2696 11.2433 30.5992 11.2433C29.4861 11.2433 28.4828 11.7107 27.7731 12.4589L21.2935 9.80513C21.294 9.78 21.2955 9.75508 21.2955 9.72974C21.2955 7.58031 19.5518 5.83785 17.4008 5.83785C15.2498 5.83785 13.5062 7.58031 13.5062 9.72974C13.5062 9.94728 13.5249 10.1603 13.5592 10.3681L6.82745 14.3483C6.16458 13.8261 5.32848 13.5135 4.41884 13.5135C2.26786 13.5135 0.52417 15.256 0.52417 17.4054C0.52417 19.5549 2.26786 21.2973 4.41884 21.2973C6.56981 21.2973 8.3134 19.5549 8.3134 17.4054C8.3134 17.1879 8.29473 16.9749 8.26038 16.7671L14.9922 12.7869C15.655 13.3091 16.4911 13.6216 17.4009 13.6216C18.514 13.6216 19.5173 13.1543 20.227 12.4061L26.7066 15.0598C26.7061 15.0849 26.7047 15.1098 26.7047 15.1351C26.7047 17.2845 28.4484 19.027 30.5994 19.027C32.7503 19.027 34.4939 17.2845 34.4939 15.1351C34.4939 14.6847 34.4165 14.2526 34.2757 13.8503L41.8645 7.38544C42.3825 7.6401 42.965 7.7838 43.5814 7.7838C45.7324 7.7838 47.4761 6.04133 47.4761 3.8919C47.4761 1.74246 45.7323 0 43.5813 0Z" fill="#B3B3B3"/>
</g>
<defs>
<clipPath id="clip0_231_20">
<rect width="48" height="48" fill="white"/>
</clipPath>
</defs>
</svg>
