<svg width="48" height="48" viewBox="0 0 48 48" fill="none" xmlns="http://www.w3.org/2000/svg">
<path d="M15.6776 7.76764V33.3184C14.1908 31.9921 12.2316 31.1847 10.0871 31.1847C5.45115 31.1847 1.6795 34.9563 1.6795 39.5923C1.6795 44.2284 5.45115 48 10.0871 48C14.7173 48 18.485 44.2378 18.4946 39.6099H18.4948V19.0757L43.5032 12.7363V26.5358C42.0164 25.2095 40.0572 24.402 37.9128 24.402C33.2768 24.402 29.5051 28.1737 29.5051 32.8096C29.5051 37.4456 33.2768 41.2173 37.9128 41.2173C42.5487 41.2173 46.3204 37.4456 46.3204 32.8096V0L15.6776 7.76764Z" fill="#B3B3B3"/>
</svg>
