<svg width="48" height="48" viewBox="0 0 48 48" fill="none" xmlns="http://www.w3.org/2000/svg">
<path d="M18 36C16.9 36 15.9583 35.6083 15.175 34.825C14.3917 34.0417 14 33.1 14 32V8C14 6.9 14.3917 5.95833 15.175 5.175C15.9583 4.39167 16.9 4 18 4H36C37.1 4 38.0417 4.39167 38.825 5.175C39.6083 5.95833 40 6.9 40 8V32C40 33.1 39.6083 34.0417 38.825 34.825C38.0417 35.6083 37.1 36 36 36H18ZM18 32H36V8H18V32ZM10 44C8.9 44 7.95833 43.6083 7.175 42.825C6.39167 42.0417 6 41.1 6 40V12H10V40H32V44H10Z" fill="#B3B3B3"/>
</svg>
