<svg width="48" height="48" viewBox="0 0 48 48" fill="none" xmlns="http://www.w3.org/2000/svg">
<g clip-path="url(#clip0_225_51)">
<path d="M47.9793 16.1095V5.34115C47.9793 2.40172 45.5879 0.0102539 42.6484 0.0102539H5.3309C2.39137 0.0102539 0 2.40172 0 5.34115V42.6587C0 45.5982 2.39137 47.9896 5.3309 47.9896H42.6485C45.5879 47.9896 47.9794 45.5983 47.9794 42.6587V16.5923C47.993 16.5138 48.0001 16.4332 48.0001 16.3508C48.0001 16.2685 47.9929 16.188 47.9793 16.1095ZM32.6658 2.82125H42.6485C44.0379 2.82125 45.1684 3.95168 45.1684 5.34115V14.9454H32.6658V2.82125ZM14.5627 45.1786H5.3309C3.94134 45.1786 2.81099 44.0482 2.81099 42.6587V33.0485H14.5627V45.1786ZM14.5627 30.2375H2.81099V17.7564H14.5627V30.2375ZM14.5628 14.9454H2.81099V5.34115C2.81099 3.95168 3.94134 2.82125 5.3309 2.82125H14.5628V14.9454ZM29.8548 45.1786H17.3736V33.0485H29.8548V45.1786ZM29.8548 30.2375H17.3736V17.7564H29.8548V30.2375ZM29.8548 14.9454H17.3736V2.82125H29.8548V14.9454ZM45.1684 42.6587C45.1684 44.0482 44.0379 45.1786 42.6485 45.1786H32.6658V33.0485H45.1684V42.6587ZM45.1684 30.2375H32.6658V17.7564H45.1684V30.2375Z" fill="#B3B3B3"/>
</g>
<defs>
<clipPath id="clip0_225_51">
<rect width="48" height="48" fill="white"/>
</clipPath>
</defs>
</svg>
