<svg width="48" height="48" viewBox="0 0 48 48" fill="none" xmlns="http://www.w3.org/2000/svg">
<g clip-path="url(#clip0_44_231)">
<path d="M8 40C6.9 40 5.95833 39.6083 5.175 38.825C4.39167 38.0417 4 37.1 4 36V12C4 10.9 4.39167 9.95833 5.175 9.175C5.95833 8.39167 6.9 8 8 8H20L24 12H40C41.1 12 42.0417 12.3917 42.825 13.175C43.6083 13.9583 44 14.9 44 16H22.35L18.35 12H8V36L12.8 20H47L41.85 37.15C41.5833 38.0167 41.0917 38.7083 40.375 39.225C39.6583 39.7417 38.8667 40 38 40H8ZM12.2 36H38L41.6 24H15.8L12.2 36Z" fill="#B3B3B3"/>
</g>
<defs>
<clipPath id="clip0_44_231">
<rect width="48" height="48" fill="white"/>
</clipPath>
</defs>
</svg>
