<svg width="48" height="48" viewBox="0 0 48 48" fill="none" xmlns="http://www.w3.org/2000/svg">
<path d="M45.975 24.75V15.75C45.975 15.525 45.9 15.3 45.675 15.075L36.6 6.00001C36 5.40001 35.175 5.10001 34.35 5.10001H13.65C12.825 5.10001 12 5.47501 11.4 6.00001L2.32501 15.075C2.17501 15.225 2.10001 15.525 2.02501 15.75V24.75C2.02501 26.25 3.07501 27.525 4.50001 27.825L2.25001 30.075C2.10001 30.225 2.02501 30.525 1.95001 30.75V39.75C1.95001 41.475 3.37501 42.975 5.17501 42.975H42.675C44.4 42.975 45.9 41.55 45.9 39.75V30.75C45.9 30.525 45.825 30.3 45.6 30.075L43.35 27.825C44.85 27.525 45.975 26.25 45.975 24.75ZM12.75 7.35001C12.975 7.12501 13.35 6.97501 13.65 6.97501H34.275C34.65 6.97501 34.95 7.12501 35.175 7.35001L42.675 14.85H5.25001L12.75 7.35001ZM40.875 27.975L42.75 29.85H5.25001L7.12501 27.975H40.875ZM44.1 39.75C44.1 40.5 43.5 41.1 42.75 41.1H5.25001C4.50001 41.1 3.90001 40.5 3.90001 39.75V31.725H44.025V39.75H44.1ZM44.1 24.75C44.1 25.5 43.5 26.1 42.75 26.1H5.25001C4.50001 26.1 3.90001 25.5 3.90001 24.75V16.725H44.025V24.75H44.1Z" fill="#B3B3B3"/>
<path d="M9.00002 36.975H11.25C11.775 36.975 12.225 36.525 12.225 36C12.225 35.475 11.775 35.025 11.25 35.025H9.00002C8.47502 35.025 8.02502 35.475 8.02502 36C8.02502 36.525 8.47502 36.975 9.00002 36.975Z" fill="#B3B3B3"/>
<path d="M15 36.975H22.05C22.575 36.975 23.025 36.525 23.025 36C23.025 35.475 22.575 35.025 22.05 35.025H15C14.475 35.025 14.025 35.475 14.025 36C14.025 36.525 14.475 36.975 15 36.975Z" fill="#B3B3B3"/>
<path d="M9.00002 21.975H11.25C11.775 21.975 12.225 21.525 12.225 21C12.225 20.475 11.775 20.025 11.25 20.025H9.00002C8.47502 20.025 8.02502 20.475 8.02502 21C8.02502 21.525 8.47502 21.975 9.00002 21.975Z" fill="#B3B3B3"/>
<path d="M15 21.975H22.05C22.575 21.975 23.025 21.525 23.025 21C23.025 20.475 22.575 20.025 22.05 20.025H15C14.475 20.025 14.025 20.475 14.025 21C14.025 21.525 14.475 21.975 15 21.975Z" fill="#B3B3B3"/>
</svg>
