<svg width="512" height="512" viewBox="0 0 512 512" fill="none" xmlns="http://www.w3.org/2000/svg">
<path d="M421.685 256.8L422.181 256L421.685 255.2C385.941 197.92 324.347 163.723 256.907 163.723C189.467 163.723 127.872 197.92 92.1334 255.2L91.6321 256L92.1334 256.8C127.872 314.08 189.472 348.272 256.912 348.272C324.352 348.272 385.941 314.08 421.685 256.8ZM256.907 321.04C204.56 321.04 156.432 297.349 124.677 256C156.432 214.645 204.56 190.96 256.907 190.96C309.253 190.96 357.381 214.651 389.136 256C357.381 297.355 309.253 321.04 256.907 321.04Z" fill="#B3B3B3"/>
<path d="M256.907 201.643C226.933 201.643 202.549 226.027 202.549 256C202.549 285.973 226.933 310.357 256.907 310.357C286.88 310.357 311.264 285.968 311.264 256C311.264 226.032 286.88 201.643 256.907 201.643ZM256.907 283.12C241.952 283.12 229.787 270.955 229.787 256C229.787 241.045 241.952 228.88 256.907 228.88C271.861 228.88 284.027 241.045 284.027 256C284.027 270.955 271.861 283.12 256.907 283.12Z" fill="#B3B3B3"/>
<path d="M422.64 42.6667H346.176C339.493 42.6667 334.069 49.3174 334.069 56C334.069 62.6827 339.488 69.3334 346.176 69.3334H422.64C441.445 69.3334 442.667 71.1574 442.667 88.688V157.653C442.667 164.336 449.317 169.76 456 169.76C462.688 169.76 469.333 164.341 469.333 157.653V88.688C469.333 57.7227 454.667 42.6667 422.64 42.6667Z" fill="#B3B3B3"/>
<path d="M56.0001 169.76C62.6827 169.76 69.3334 164.341 69.3334 157.653V88.688C69.3334 71.1574 72.3734 69.3334 91.1788 69.3334H167.637C174.32 69.3334 179.744 62.6827 179.744 56C179.744 49.3174 174.325 42.6667 167.637 42.6667H91.1788C59.1468 42.6667 42.6667 57.7227 42.6667 88.688V157.653C42.6667 164.341 49.3174 169.76 56.0001 169.76Z" fill="#B3B3B3"/>
<path d="M167.643 442.667H91.1788C72.3734 442.667 69.3334 440.843 69.3334 423.312V351.317C69.3334 344.635 62.6827 339.211 56.0001 339.211C49.3174 339.211 42.6667 344.635 42.6667 351.317V423.312C42.6667 454.277 59.1468 469.333 91.1788 469.333H167.637C174.32 469.333 179.744 462.683 179.744 456C179.744 449.317 174.325 442.667 167.643 442.667Z" fill="#B3B3B3"/>
<path d="M456 339.216C449.317 339.216 442.667 344.635 442.667 351.323V423.317C442.667 440.843 441.445 442.667 422.64 442.667H346.176C339.493 442.667 334.069 449.317 334.069 456C334.069 462.683 339.488 469.333 346.176 469.333H422.64C454.667 469.333 469.333 454.277 469.333 423.312V351.317C469.333 344.635 462.688 339.216 456 339.216Z" fill="#B3B3B3"/>
</svg>
