<svg width="68" height="47" viewBox="0 0 68 47" fill="none" xmlns="http://www.w3.org/2000/svg">
<path d="M41.4183 23.0255C41.4207 22.219 41.3334 21.4147 41.1581 20.6275C40.6997 18.5366 39.6515 16.621 38.1379 15.1073C36.041 13.0026 33.1908 11.8218 30.2197 11.827L15.8256 11.8326C12.862 11.8355 10.0202 13.013 7.92328 15.1073C3.54738 19.4777 3.54281 26.5678 7.91314 30.9437C10.0035 33.0486 12.8478 34.2314 15.8144 34.2297L27.6916 34.2297C27.9065 34.2306 28.1127 34.1449 28.2637 33.9922C28.5743 33.678 28.5714 33.1716 28.2572 32.861L28.031 32.6348C26.7859 31.3984 25.7944 29.9304 25.1126 28.3138C24.988 28.0148 24.6954 27.8206 24.3717 27.8217L15.8257 27.8273C13.1737 27.8273 11.0239 25.6775 11.0239 23.0255C11.0239 20.3736 13.1737 18.2237 15.8257 18.2237L30.2651 18.2294C32.9132 18.2311 35.0596 20.3774 35.0612 23.0256C35.1138 24.7589 36.5066 26.1517 38.2398 26.2042C39.0084 26.2038 39.7513 25.9268 40.3325 25.4236C41.0217 24.8171 41.4172 23.9436 41.4183 23.0255Z" fill="#B3B3B3"/>
<path d="M63.2385 23.0255C63.2385 16.8407 58.2247 11.827 52.0399 11.827L40.1796 11.8213C39.853 11.8221 39.5598 12.0213 39.4387 12.3247C39.316 12.6276 39.3899 12.9747 39.6253 13.2013L39.8346 13.4105C41.0761 14.6475 42.0637 16.1154 42.7417 17.7316C42.8663 18.0305 43.1588 18.2247 43.4825 18.2236L51.9946 18.2293C54.6466 18.2293 56.7964 20.3791 56.7964 23.0311C56.7964 25.6831 54.6466 27.8329 51.9946 27.8329L41.3899 27.8272L41.2937 27.8328L37.5948 27.8216C34.9466 27.8199 32.8003 25.6736 32.7986 23.0254C32.7461 21.2921 31.3533 19.8993 29.6201 19.8468C28.8461 19.8476 28.0986 20.1289 27.5161 20.6386C26.8269 21.2451 26.4313 22.1186 26.4302 23.0367C26.4274 24.3488 26.6572 25.6508 27.1089 26.8826C27.1711 27.058 27.2446 27.222 27.3125 27.3917C27.3804 27.5613 27.4652 27.7253 27.5387 27.8894C27.6122 28.0534 27.6971 28.2174 27.7819 28.3701L28.0251 28.7943C28.1948 29.077 28.3758 29.3486 28.5681 29.62C28.8059 29.9408 29.0608 30.2485 29.3316 30.5419L29.7275 30.9378L29.7615 30.9718L30.1404 31.2715C30.2704 31.3903 30.4288 31.4921 30.5759 31.6392L30.7682 31.8315L31.215 32.1652L31.4299 32.3123L31.8258 32.5724L31.888 32.6346C33.6263 33.675 35.6142 34.2242 37.64 34.2239L52.0397 34.2239C58.2247 34.2241 63.2385 29.2103 63.2385 23.0255Z" fill="#B3B3B3"/>
</svg>
