<svg width="48" height="48" viewBox="0 0 48 48" fill="none" xmlns="http://www.w3.org/2000/svg">
<g clip-path="url(#clip0_44_116)">
<rect width="48" height="48" fill="#2E2E33"/>
<g clip-path="url(#clip1_44_116)">
<path d="M140.822 -53.0807L178.231 -96.9955C173.876 -104.81 171.394 -113.812 171.394 -123.394C171.394 -153.385 195.706 -177.697 225.697 -177.697C255.688 -177.697 280 -153.385 280 -123.394C280 -93.4032 255.688 -69.0909 225.697 -69.0909C216.601 -69.0909 208.027 -71.3273 200.496 -75.2803L156.667 -23.8293L259.803 166.576C262.876 172.249 264.485 178.598 264.485 185.05V217.939C264.485 239.361 247.119 256.727 225.697 256.727H-193.212C-214.634 256.727 -232 239.361 -232 217.939V185.05C-232 178.598 -230.391 172.249 -227.318 166.576L-35.0322 -188.413C-28.2524 -200.93 -15.1612 -208.727 -0.926374 -208.727H33.4112C47.6461 -208.727 60.7372 -200.93 67.517 -188.413L140.822 -53.0807ZM-173.628 132.606L-200.033 181.355C-200.648 182.489 -200.97 183.759 -200.97 185.05V217.939C-200.97 222.224 -197.497 225.697 -193.212 225.697H225.697C229.981 225.697 233.455 222.224 233.455 217.939V185.05C233.455 183.759 233.133 182.489 232.518 181.355L206.112 132.606H-173.628ZM119.25 -27.7564L40.2325 -173.634C38.8765 -176.138 36.2582 -177.697 33.4112 -177.697H-0.926374C-3.77334 -177.697 -6.39167 -176.138 -7.74763 -173.634L-156.82 101.576H9.07765L119.25 -27.7564ZM135.094 1.49526L49.8404 101.576H189.304L135.094 1.49526ZM225.697 -100.121C238.55 -100.121 248.97 -110.541 248.97 -123.394C248.97 -136.247 238.55 -146.667 225.697 -146.667C212.844 -146.667 202.424 -136.247 202.424 -123.394C202.424 -110.541 212.844 -100.121 225.697 -100.121Z" fill="black"/>
</g>
</g>
<defs>
<clipPath id="clip0_44_116">
<rect width="48" height="48" fill="white"/>
</clipPath>
<clipPath id="clip1_44_116">
<rect width="512" height="512" fill="white" transform="translate(-232 -232)"/>
</clipPath>
</defs>
</svg>
