<svg width="48" height="48" viewBox="0 0 48 48" fill="none" xmlns="http://www.w3.org/2000/svg">
<g clip-path="url(#clip0_101_303)">
<path d="M23 37.6C20.5861 37.6 18.3097 37.1417 16.1708 36.225C14.0319 35.3084 12.1604 34.0479 10.5562 32.4438C8.95208 30.8396 7.69166 28.9681 6.775 26.8292C5.85833 24.6903 5.4 22.4139 5.4 20C5.4 17.5556 5.86597 15.2639 6.79791 13.125C7.72986 10.9861 8.99028 9.12225 10.5792 7.53336L12.9167 9.87086C11.6333 11.1542 10.6097 12.6667 9.84583 14.4084C9.08194 16.15 8.7 18.0139 8.7 20C8.7 23.9722 10.0903 27.3486 12.8708 30.1292C15.6514 32.9097 19.0278 34.3 23 34.3C26.9722 34.3 30.3486 32.9097 33.1292 30.1292C35.9097 27.3486 37.3 23.9722 37.3 20C37.3 18.0139 36.9333 16.15 36.2 14.4084C35.4667 12.6667 34.4431 11.1542 33.1292 9.87086L35.4667 7.53336C37.0861 9.12225 38.3465 10.9861 39.2479 13.125C40.1493 15.2639 40.6 17.5556 40.6 20C40.6 22.4139 40.1417 24.6903 39.225 26.8292C38.3083 28.9681 37.0479 30.8396 35.4437 32.4438C33.8396 34.0479 31.9757 35.3084 29.8521 36.225C27.7285 37.1417 25.4444 37.6 23 37.6ZM21.35 22.2V2.40002H24.65V22.2H21.35Z" fill="#E6E6E6"/>
</g>
<defs>
<clipPath id="clip0_101_303">
<rect width="48" height="48" fill="white"/>
</clipPath>
</defs>
</svg>
