<svg width="48" height="48" viewBox="0 0 48 48" fill="none" xmlns="http://www.w3.org/2000/svg">
<path d="M12 42C10.3333 42 8.91667 41.4167 7.75 40.25C6.58333 39.0833 6 37.6667 6 36V24C6 23.2 6.15 22.4333 6.45 21.7C6.75 20.9667 7.18333 20.3167 7.75 19.75L19.75 7.75C20.3167 7.15 20.975 6.70833 21.725 6.425C22.475 6.14167 23.2333 6 24 6C24.7667 6 25.5167 6.14167 26.25 6.425C26.9833 6.70833 27.65 7.15 28.25 7.75L40.25 19.75C40.8167 20.3167 41.25 20.9667 41.55 21.7C41.85 22.4333 42 23.2 42 24V36C42 37.6667 41.4167 39.0833 40.25 40.25C39.0833 41.4167 37.6667 42 36 42H12ZM12 38H36C36.5667 38 37.0417 37.8083 37.425 37.425C37.8083 37.0417 38 36.5667 38 36V24C38 23.7333 37.95 23.4833 37.85 23.25C37.75 23.0167 37.6 22.8 37.4 22.6L29.75 14.9L26.8 17.8L34 25V34H14V25L26.9 12.1L25.4 10.6C25.1333 10.3333 24.875 10.1667 24.625 10.1C24.375 10.0333 24.1667 10 24 10C23.8333 10 23.625 10.0333 23.375 10.1C23.125 10.1667 22.8667 10.3333 22.6 10.6L10.6 22.6C10.4 22.8 10.25 23.0167 10.15 23.25C10.05 23.4833 10 23.7333 10 24V36C10 36.5667 10.1917 37.0417 10.575 37.425C10.9583 37.8083 11.4333 38 12 38ZM18 30H30V26.65L24 20.65L18 26.65V30Z" fill="#B3B3B3"/>
</svg>
