<svg width="64" height="64" viewBox="0 0 64 64" fill="none" xmlns="http://www.w3.org/2000/svg">
<path d="M33.0171 33.8714V59.9999L56.3894 45.9847V19.8459L33.0171 33.8714ZM44.2049 48.0189C43.8875 48.0154 43.5842 47.8869 43.361 47.6613C43.1377 47.4356 43.0125 47.131 43.0126 46.8136C43.0126 46.4962 43.1378 46.1915 43.361 45.9659C43.5843 45.7402 43.8875 45.6118 44.2049 45.6083C44.5223 45.6118 44.8256 45.7403 45.0488 45.9659C45.272 46.1916 45.3972 46.4962 45.3972 46.8136C45.3972 47.1311 45.272 47.4357 45.0488 47.6613C44.8255 47.887 44.5223 48.0155 44.2049 48.0189ZM45.8525 41.5198C45.646 41.5902 45.4703 41.7301 45.3553 41.9155C45.2403 42.101 45.1932 42.3205 45.2219 42.5368C45.2211 42.8063 45.1137 43.0646 44.9232 43.2552C44.7326 43.4457 44.4744 43.5532 44.2049 43.5539C44.0569 43.5513 43.9113 43.5172 43.7775 43.4541C43.6437 43.391 43.5248 43.3002 43.4287 43.1877C43.3325 43.0753 43.2614 42.9437 43.2198 42.8017C43.1783 42.6597 43.1674 42.5105 43.1878 42.3639C43.1924 41.7654 43.3786 41.1823 43.7219 40.692C44.0652 40.2016 44.5492 39.827 45.1101 39.6178C45.5337 39.4535 45.9045 39.1765 46.1822 38.8168C46.46 38.4571 46.6342 38.0284 46.6861 37.577C46.738 37.1255 46.6656 36.6684 46.4767 36.2551C46.2878 35.8418 45.9896 35.4879 45.6143 35.2317C45.2389 34.9755 44.8008 34.8266 44.347 34.8013C43.8933 34.7759 43.4413 34.8749 43.0397 35.0877C42.6382 35.3005 42.3024 35.6189 42.0686 36.0086C41.8348 36.3983 41.7118 36.8444 41.7131 37.2988C41.7092 37.566 41.6004 37.821 41.41 38.0086C41.2197 38.1962 40.9632 38.3014 40.696 38.3014C40.4287 38.3014 40.1722 38.1962 39.9819 38.0086C39.7916 37.821 39.6827 37.566 39.6789 37.2988C39.6781 36.4735 39.9027 35.6636 40.3283 34.9566C40.754 34.2496 41.3646 33.6721 42.0943 33.2866C42.8241 32.9011 43.6452 32.7222 44.4691 32.7691C45.2931 32.8159 46.0886 33.0869 46.7699 33.5527C47.4512 34.0185 47.9923 34.6614 48.335 35.4122C48.6778 36.163 48.809 36.993 48.7146 37.8129C48.6202 38.6328 48.3037 39.4113 47.7994 40.0646C47.295 40.7178 46.6218 41.221 45.8525 41.5198Z" fill="#B3B3B3"/>
<path d="M7.61063 45.9847L30.9829 59.9999V33.8714L7.61063 19.8459V45.9847ZM19.7951 48.0189C19.4777 48.0154 19.1745 47.8869 18.9512 47.6613C18.728 47.4356 18.6028 47.131 18.6028 46.8136C18.6028 46.4962 18.728 46.1915 18.9513 45.9659C19.1745 45.7402 19.4778 45.6118 19.7952 45.6083C20.1126 45.6118 20.4158 45.7403 20.6391 45.9659C20.8623 46.1916 20.9875 46.4962 20.9875 46.8136C20.9875 47.1311 20.8623 47.4357 20.639 47.6613C20.4158 47.887 20.1125 48.0155 19.7951 48.0189ZM20.7614 32.8645C21.7043 33.0827 22.553 33.5957 23.1846 34.329C23.8161 35.0623 24.1975 35.9777 24.2735 36.9425C24.3494 37.9073 24.1159 38.8711 23.6069 39.6942C23.0979 40.5173 22.3399 41.1567 21.4428 41.5198C21.2363 41.5902 21.0605 41.7301 20.9456 41.9155C20.8306 42.101 20.7835 42.3205 20.8122 42.5368C20.8114 42.8063 20.704 43.0646 20.5134 43.2552C20.3229 43.4457 20.0646 43.5532 19.7951 43.5539C19.6472 43.5513 19.5015 43.5172 19.3677 43.4541C19.2339 43.391 19.115 43.3002 19.0189 43.1877C18.9228 43.0753 18.8516 42.9437 18.8101 42.8017C18.7686 42.6597 18.7577 42.5105 18.7781 42.3639C18.7827 41.7654 18.9689 41.1823 19.3122 40.692C19.6554 40.2016 20.1395 39.827 20.7003 39.6178C21.124 39.4535 21.4947 39.1765 21.7725 38.8168C22.0502 38.4571 22.2245 38.0284 22.2764 37.577C22.3283 37.1255 22.2559 36.6684 22.067 36.2551C21.8781 35.8418 21.5799 35.4879 21.2045 35.2317C20.8292 34.9755 20.391 34.8266 19.9373 34.8013C19.4836 34.7759 19.0315 34.8749 18.63 35.0877C18.2284 35.3005 17.8926 35.6189 17.6588 36.0086C17.425 36.3983 17.3021 36.8444 17.3033 37.2988C17.2994 37.566 17.1905 37.8209 17.0002 38.0084C16.8099 38.1959 16.5534 38.301 16.2862 38.301C16.0191 38.301 15.7626 38.1959 15.5723 38.0084C15.382 37.8208 15.2731 37.5659 15.2692 37.2988C15.2743 36.6236 15.4292 35.9579 15.7226 35.3498C16.016 34.7417 16.4407 34.2063 16.9661 33.7821C17.4915 33.358 18.1044 33.0556 18.7607 32.897C19.417 32.7383 20.1003 32.7272 20.7614 32.8645Z" fill="#B3B3B3"/>
<path d="M32 4L8.577 18.056L32 32.112L55.423 18.056L32 4Z" fill="#B3B3B3"/>
</svg>
