<svg width="48" height="48" viewBox="0 0 48 48" fill="none" xmlns="http://www.w3.org/2000/svg">
<g clip-path="url(#clip0_44_216)">
<path d="M42 14V38C42 39.1 41.6083 40.0417 40.825 40.825C40.0417 41.6083 39.1 42 38 42H10C8.9 42 7.95833 41.6083 7.175 40.825C6.39167 40.0417 6 39.1 6 38V10C6 8.9 6.39167 7.95833 7.175 7.175C7.95833 6.39167 8.9 6 10 6H34L42 14ZM38 15.7L32.3 10H10V38H38V15.7ZM24 36C25.6667 36 27.0833 35.4167 28.25 34.25C29.4167 33.0833 30 31.6667 30 30C30 28.3333 29.4167 26.9167 28.25 25.75C27.0833 24.5833 25.6667 24 24 24C22.3333 24 20.9167 24.5833 19.75 25.75C18.5833 26.9167 18 28.3333 18 30C18 31.6667 18.5833 33.0833 19.75 34.25C20.9167 35.4167 22.3333 36 24 36ZM12 20H30V12H12V20ZM10 15.7V38V10V15.7Z" fill="#B3B3B3"/>
</g>
<defs>
<clipPath id="clip0_44_216">
<rect width="48" height="48" fill="white"/>
</clipPath>
</defs>
</svg>
