<svg width="48" height="48" viewBox="0 0 48 48" fill="none" xmlns="http://www.w3.org/2000/svg">
<path d="M36 36V9C36 7.34314 34.6568 6 33 6H11.4649C11.8052 6.58834 12 7.27142 12 8V40C12 41.1046 12.8954 42 14 42C15.1046 42 16 41.1046 16 40V37C16 36.4478 16.4477 36 17 36H36ZM38 36H43C43.5522 36 44 36.4478 44 37V39C44 41.7614 41.7614 44 39 44H14C11.7909 44 10 42.2092 10 40V12H8C5.79086 12 4 10.2091 4 8C4 5.79086 5.79086 4 8 4H33C35.7614 4 38 6.23858 38 9V36ZM18 38V40C18 40.7286 17.8052 41.4116 17.4649 42H39C40.6568 42 42 40.6568 42 39V38H18ZM10 10V8C10 6.89544 9.10456 6 8 6C6.89544 6 6 6.89544 6 8C6 9.10456 6.89544 10 8 10H10ZM17 14C16.4477 14 16 13.5523 16 13C16 12.4477 16.4477 12 17 12H31C31.5522 12 32 12.4477 32 13C32 13.5523 31.5522 14 31 14H17ZM17 20C16.4477 20 16 19.5523 16 19C16 18.4477 16.4477 18 17 18H31C31.5522 18 32 18.4477 32 19C32 19.5523 31.5522 20 31 20H17ZM17 26C16.4477 26 16 25.5522 16 25C16 24.4478 16.4477 24 17 24H31C31.5522 24 32 24.4478 32 25C32 25.5522 31.5522 26 31 26H17ZM17 32C16.4477 32 16 31.5522 16 31C16 30.4478 16.4477 30 17 30H27C27.5522 30 28 30.4478 28 31C28 31.5522 27.5522 32 27 32H17Z" fill="#B3B3B3"/>
</svg>
