<svg width="48" height="48" viewBox="0 0 48 48" fill="none" xmlns="http://www.w3.org/2000/svg">
<g clip-path="url(#clip0_44_112)">
<rect width="48" height="48" fill="#2E2E33"/>
<path d="M40.65 45.2L34.35 38.9C33.2833 39.6 32.1583 40.1917 30.975 40.675C29.7917 41.1583 28.5667 41.5167 27.3 41.75V38.65C28.0667 38.45 28.8083 38.2 29.525 37.9C30.2417 37.6 30.9333 37.2333 31.6 36.8L24 29.2V40L14 30H6V18H12.2L2.8 8.6L4.9 6.5L42.75 44.35L40.65 45.2ZM38.8 33.4L36.6 31.2C37.3333 29.7333 37.8417 28.2167 38.125 26.65C38.4083 25.0833 38.55 23.4833 38.55 21.85C38.55 18.4833 37.55 15.4667 35.55 12.8C33.55 10.1333 30.9 8.35 27.6 7.45V4.35C31.7333 5.28333 35.1 7.375 37.7 10.625C40.3 13.875 41.6 17.6167 41.6 21.85C41.6 24 41.3333 26.05 40.8 28C40.2667 29.95 39.5333 31.7667 38.6 33.45L38.8 33.4ZM32.75 27.35L27.3 21.9V13.45C29.1333 14.0167 30.5917 15.0833 31.675 16.65C32.7583 18.2167 33.3 19.9667 33.3 21.9C33.3 22.6333 33.225 23.35 33.075 24.05C32.925 24.75 32.7167 25.4 32.45 26L32.75 27.35ZM24 18.15L17.85 12L24 5.85V18.15ZM21 32.45V23.65L15.35 18H9V27H15.35L21 32.45Z" fill="#B3B3B3"/>
</g>
<defs>
<clipPath id="clip0_44_112">
<rect width="48" height="48" fill="white"/>
</clipPath>
</defs>
</svg>
