<svg width="322" height="294" viewBox="0 0 322 294" fill="none" xmlns="http://www.w3.org/2000/svg">
<path d="M16.9974 293.375C-1.01349 289.518 -4.79793 277.809 6.0603 259.535C7.78514 256.633 11.6908 250.02 14.7396 244.84C17.7884 239.66 21.3044 233.727 22.5529 231.655C26.5846 224.965 33.9407 212.405 40.3129 201.33C60.4078 166.408 68.7868 146.418 75.3393 117.769L77.0901 110.115L75.9152 108.728C70.9896 102.917 68.8294 97.5899 66.6452 85.8701C63.7367 70.2639 65.6103 63.6413 74.2186 59.1006L77.1195 57.5705L77.997 53.6384C84.4622 24.6693 106.786 6.50085 142.272 1.32768C192.851 -6.04574 235.527 17.951 241.207 56.9577L241.796 61.0075L242.623 61.5726C249.823 66.4928 251.356 72.049 249.553 86.6864L249.082 90.5164L250.098 95.539C253.873 114.192 261.6 139.724 267.465 152.924C274.833 169.506 279.354 176.686 288.222 185.893L293.128 190.986L294.88 194.369C295.844 196.229 297.222 199.616 297.942 201.895C299.092 205.535 302.516 215.047 307.232 227.7C309.658 234.212 314.281 247.029 316.81 254.258C318.114 257.987 319.69 262.31 320.31 263.864C325.771 277.543 317.656 289.815 300.885 293.237L297.148 294L158.389 293.969L19.6308 293.939L16.9974 293.375ZM295.565 289.619C308.246 288.485 317.21 279.726 316.527 269.137L316.32 265.935L314.186 259.908C313.012 256.593 310.66 249.728 308.959 244.652C289.881 187.71 291.158 190.615 282.344 184.095C271.897 176.367 259.143 156.414 247.491 129.568C246.861 128.118 245.174 124.558 243.741 121.657C242.308 118.756 240.907 115.746 240.627 114.967C239.408 111.573 239.653 114.946 241.006 120.181C246.992 143.346 255.012 164.292 263.307 178.427L264.788 180.951L266.077 181.377C274.325 184.103 281.409 189.054 284.385 194.173C285.352 195.837 287.619 201.795 293.129 217.152C294.652 221.399 296.844 227.502 298 230.713C299.155 233.925 301.027 239.18 302.159 242.391C303.291 245.603 305.252 251.112 306.516 254.634C307.78 258.156 309.328 262.477 309.955 264.236L311.096 267.435L310.877 270.548L310.658 273.662L309.52 276.048C307.484 280.32 303.157 283.45 297.166 284.985L294.324 285.712L159.611 285.705L24.8976 285.698L22.4064 285.169C15.3284 283.667 10.4296 278.649 10.4311 272.903C10.432 269.603 11.1248 268.054 17.251 257.646C20.0561 252.881 23.1557 247.541 24.1391 245.78C26.6603 241.265 34.2076 228.115 39.3813 219.222C41.7922 215.078 45.2544 209.061 47.075 205.849C48.8957 202.638 51.0203 198.908 51.7963 197.562C53.3081 194.938 59.4644 183.568 62.6888 177.444C66.5694 170.074 70.1799 162.615 72.6434 156.877C74.0223 153.666 75.4114 150.453 75.7302 149.737C78.5584 143.389 84.3367 126.504 86.1807 119.2L87.0712 115.674L85.1792 114.796C82.8844 113.732 83.7296 112.224 79.5381 124.859C77.5792 130.764 75.5445 136.697 75.0166 138.044C74.4886 139.391 73.0953 142.95 71.9203 145.955C70.0327 150.781 63.5572 164.31 59.8402 171.194C56.3112 177.729 55.1644 179.833 51.3187 186.827C47.3684 194.011 44.2629 199.581 37.6656 211.313C36.0346 214.214 33.9207 218.028 32.9682 219.789C32.0157 221.55 29.8282 225.449 28.107 228.453C26.3858 231.457 24.2698 235.187 23.4049 236.741C22.5399 238.295 19.4629 243.719 16.5672 248.795C4.95514 269.15 4.59015 269.952 4.83779 274.543C5.23859 281.973 12.423 288.296 22.2642 289.877C24.3658 290.215 291.727 289.963 295.565 289.619ZM130.428 271.779C131.363 270.844 133.727 268.638 135.681 266.877C137.635 265.116 140.27 262.743 141.535 261.603C142.8 260.464 146.023 257.723 148.696 255.513C151.37 253.303 154.828 250.444 156.379 249.159C165.644 241.487 185.26 227.477 197.761 219.604C227.256 201.028 246.482 192.622 263.088 191.042L267.923 190.581L263.596 189.206C251.416 185.333 244.541 184.11 239.704 184.955C226.551 187.252 197.699 199.241 176.694 211.139C175.142 212.018 172.349 213.576 170.487 214.602C152.806 224.343 118.444 247.723 106.238 258.318L104.814 259.554L105.861 260.537C107.788 262.346 115.667 267.787 120.72 270.799C123.469 272.438 126.058 273.989 126.472 274.245L127.224 274.71L127.976 274.095C128.39 273.756 129.494 272.714 130.428 271.779ZM166.167 227.573C168.301 226.138 185.973 215.645 186.256 215.645C186.342 215.645 187.655 214.911 189.172 214.013C204.195 205.122 223.276 196.616 234.629 193.748C238.995 192.645 241.51 192.41 238.386 193.397C225.332 197.522 189.723 214.31 170.909 225.211C165.399 228.403 163.596 229.301 166.167 227.573ZM148.028 218.975C158.961 212.274 167.929 207.093 176.13 202.74C179.233 201.093 181.942 199.62 182.149 199.466C185.561 196.938 216.934 184.002 219.655 184.002C220.028 184.002 220.333 183.832 220.333 183.625C220.333 183.418 219.752 183.249 219.042 183.249C213.15 183.249 194.321 178.187 190.128 175.475C187.952 174.068 187.98 174.381 187.98 151.581C187.98 139.992 187.879 130.51 187.754 130.51C187.63 130.51 186.318 131.593 184.839 132.917C176.256 140.597 167 145.765 158.875 147.412L155.439 148.109V159.746V171.382L152.994 172.591C150.59 173.779 142.497 176.798 139.737 177.536L138.33 177.912L138.232 161.889L138.134 145.867L134.842 144.447L131.55 143.026L131.525 154.944C131.502 166.191 131.277 177.651 131.076 177.797C130.554 178.178 108.227 185.156 102.771 186.643C91.7011 189.66 89.6069 190.347 88.1089 191.452L86.7172 192.478L85.0264 196.81C83.2121 201.458 81.7333 205.982 81.3319 208.111C81.1952 208.836 81.0055 209.709 80.9103 210.05L80.7373 210.67L85.1161 212.051C100.207 216.81 125.406 221.024 142.385 221.628C143.311 221.661 144.746 220.987 148.028 218.975ZM82.9856 173.308C83.7902 172.337 82.6818 167.427 81.6581 167.427C80.3562 167.427 81.4651 159.619 84.3357 148.574C86.484 140.309 88.0293 136.566 87.0506 141.999C86.4105 145.553 86.5564 159.177 87.2684 162.341C87.9013 165.154 90.2066 170.514 90.4583 169.758C90.5412 169.509 90.2161 168.501 89.736 167.518L88.8629 165.732L88.9372 158.187C88.981 153.729 89.2409 149.184 89.5726 147.075C89.8813 145.112 90.3219 141.726 90.5517 139.551C90.9012 136.242 93.145 124.46 93.7761 122.62C94.0775 121.741 92.6183 123.214 90.849 125.574C89.9792 126.735 89.1361 127.841 88.9755 128.032C88.6395 128.432 88.9189 125.234 89.4774 122.286C90.0438 119.297 89.6546 119.531 87.9138 123.228C84.4626 130.556 81.4074 141.411 79.9892 151.383C79.5829 154.24 79.4336 166.42 79.7976 167.009C79.8943 167.166 80.1377 168.619 80.3385 170.239C80.7554 173.602 81.7684 174.776 82.9856 173.308ZM90.9207 170.629C90.9207 170.525 90.836 170.441 90.7326 170.441C90.6291 170.441 90.5445 170.525 90.5445 170.629C90.5445 170.732 90.6291 170.817 90.7326 170.817C90.836 170.817 90.9207 170.732 90.9207 170.629ZM218.516 167.521C215.88 162.397 213.522 148.187 212.937 133.9L212.667 127.308L211.777 132.017L210.886 136.725L210.854 142.376C210.798 152.111 213.069 160.465 217.436 166.579C218.625 168.243 219.101 168.659 218.516 167.521ZM201.595 155.987L201.478 149.068L202.105 148.44L202.732 147.812L203.299 148.284C203.611 148.543 204.371 149.651 204.988 150.745C205.605 151.84 206.158 152.735 206.218 152.735C206.277 152.735 206.243 150.574 206.141 147.932C205.904 141.777 204.885 139.563 203.051 141.225C201.911 142.258 200.805 135.739 200.754 127.684L200.731 123.917L199.809 126.931L198.888 129.945L198.499 136.914C197.852 148.504 198.553 156.029 200.758 161.18C201.164 162.13 201.545 162.907 201.604 162.907C201.663 162.907 201.659 159.793 201.595 155.987ZM156.813 137.628C174.223 131.787 189.742 118.351 195.535 104.102L197.385 99.5511L197.385 97.4194C197.384 94.7917 197.968 88.7522 198.92 81.527C199.318 78.5167 199.642 75.8468 199.642 75.5939C199.642 75.2896 198.974 75.1357 197.667 75.1391C194.71 75.1469 194 75.4273 193.994 76.5906C193.847 102.857 151.97 103.154 149.002 76.9098L148.755 74.7302L147.173 73.802C145.1 72.5853 142.473 72.5587 140.402 73.7335L138.908 74.5808L138.622 76.27C137.742 81.4792 137.389 82.7522 136.058 85.527L134.597 88.5743L132.164 90.8532C124.758 97.7903 113.826 98.0665 105.799 91.5192C104.651 90.5829 103.711 89.9193 103.711 90.0445C103.711 101.358 115.449 120.714 127.852 129.855C139.8 138.661 147.541 140.738 156.813 137.628ZM143.614 117.64C140.675 117.167 136.604 115.071 133.995 112.687C131.297 110.221 131.391 109.886 134.435 111.118C142.374 114.329 149.605 114.16 157.866 110.572C161.879 108.829 161.987 108.955 159.037 111.936C154.695 116.325 148.856 118.484 143.614 117.64ZM140.801 99.591C140.265 98.9535 139.827 98.2754 139.827 98.0841C139.827 97.6129 144.794 97.641 146.05 98.1193L147.056 98.5022L146.572 99.0859C144.974 101.015 142.201 101.257 140.801 99.591ZM214.699 91.6695C216.574 81.575 217.343 77.7892 217.714 76.8292L218.005 76.0757L218.549 77.3942C218.849 78.1194 219.193 78.9973 219.315 79.3452L219.537 79.9778L220.567 79.702C221.267 79.5144 221.725 79.046 221.999 78.2367C222.221 77.5824 222.68 76.8285 223.019 76.5614C223.358 76.2943 224.096 74.2958 224.659 72.1203C225.507 68.84 227.724 62.1138 228.77 59.6443L229.028 59.0345L227.408 58.3841C223.488 56.8106 220.645 57.2634 219.409 59.6583C216.64 65.0187 212.823 86.6014 212.813 96.9515C212.809 101.363 212.996 100.837 214.699 91.6695ZM85.6145 95.1936C85.4734 93.795 84.9167 89.1339 84.3773 84.8355C83.838 80.537 83.3967 76.9119 83.3967 76.7797C83.3967 76.6474 83.7717 77.0282 84.2301 77.6259C85.3797 79.1248 85.778 79.3386 86.1571 78.6603C86.5987 77.8702 86.5311 58.1565 86.0853 57.7101C84.9452 56.5685 79.5174 58.9766 78.6738 60.9983L78.1343 62.2911L78.7159 66.9232C79.9452 76.7138 84.7464 97.7363 85.7532 97.7363C85.818 97.7363 85.7556 96.5921 85.6145 95.1936ZM72.187 75.1163C72.6623 74.8993 73.6947 73.7996 74.4812 72.6725L75.9111 70.6231L75.6858 68.2639C75.5619 66.9663 75.3771 65.3578 75.275 64.6893L75.0895 63.4739L73.4447 64.5009C68.1916 67.781 67.0445 77.4634 72.187 75.1163ZM239.604 71.1241L240.95 67.491L240.097 66.6371C238.515 65.0527 232.689 62.7322 231.47 63.2007C231.057 63.3596 228.61 69.9334 228.61 70.8853C228.61 71.0646 229.245 71.3971 230.02 71.6243C230.796 71.8514 232.786 72.6472 234.441 73.3926C238.366 75.1605 238.058 75.2961 239.604 71.1241ZM105.969 68.9108C107.727 67.7819 110.221 66.2199 111.51 65.4397C114.285 63.7608 114.403 63.4539 112.27 63.4626C107.598 63.4818 103.095 65.3695 101.941 67.7919L101.324 69.0867L101.757 70.0385C102.322 71.2784 102.251 71.2975 105.969 68.9108ZM160.748 68.4023C169.744 63.6473 170.102 63.2967 165.413 63.8322C158.043 64.674 153.16 67.5594 154.258 70.4243C154.632 71.401 155.709 71.0653 160.748 68.4023ZM140.844 66.7878C142.629 66.3376 146.887 66.5716 148.027 67.1824L148.708 67.5472L150.004 65.7952C154.377 59.8869 176.452 57.0676 187.574 60.9971C189.68 61.7409 189.523 61.5538 186.444 59.6454C172.647 51.0951 165.359 46.2198 158.26 40.792C155.881 38.9727 152.58 36.4659 150.924 35.2213C149.269 33.9767 147.453 32.606 146.888 32.1753C146.248 31.6865 145.649 30.6748 145.296 29.4838L144.73 27.5754L145.311 24.7027C146.314 19.7417 148.52 12.54 149.855 9.8697L150.749 8.08035H154.618C192.724 8.08035 217.116 24.202 222.801 53.1451C222.913 53.7163 223.419 54.0744 224.561 54.3907C225.443 54.6348 226.402 54.9325 226.692 55.0522L227.22 55.2699L226.962 53.0653C224.25 29.9622 206.109 12.4795 178.951 6.79706C134.384 -2.52823 94.8383 13.5226 83.4117 45.5751C82.7309 47.4848 80.7653 54.9072 80.7638 55.574C80.7633 55.7969 85.1434 54.4043 85.8723 53.9497C86.0959 53.8102 86.4947 52.7137 86.7586 51.5129C91.5858 29.5443 114.337 11.9041 141.84 8.80515C146.568 8.27234 146.519 8.24795 145.471 10.5918C143.937 14.022 141.731 20.572 140.757 24.5913C139.143 31.2464 139.06 31.485 138.014 32.4662C137.459 32.9866 135.82 34.3192 134.372 35.4274C129.557 39.1116 115.398 51.4646 110.384 56.3549L106.533 60.1116L107.662 59.8061C108.282 59.6381 111.837 59.5196 115.562 59.5428L122.333 59.5849L125.907 60.4035C130.863 61.5386 134.337 63.2594 136.441 65.6209C137.372 66.6661 138.367 67.4512 138.652 67.3654C138.938 67.2797 139.924 67.0198 140.844 66.7878ZM99.09 62.5433L101.052 61.8974L100.595 61.1386C100.145 60.393 97.7313 58.9356 96.9455 58.9356C96.7252 58.9356 96.3886 59.3475 96.1975 59.8509C95.7647 60.9908 96.1408 63.5521 96.7102 63.3428C96.9399 63.2583 98.0109 62.8985 99.09 62.5433ZM108.646 37.618C109.868 36.676 112.6 34.3731 114.716 32.5004C118.631 29.036 122.872 25.9698 128.698 22.3926C132.525 20.0426 132.552 19.9091 129.002 20.915C122.245 22.83 115.216 27.0562 109.852 32.4298L106.399 35.8888L104.867 39.1023C102.962 43.0995 102.963 43.2672 104.879 41.087C105.728 40.1211 107.423 38.56 108.646 37.618ZM182.337 27.0714C182.337 23.1933 166.713 16.6087 157.912 16.7776L156.191 16.8106L160.329 18.2095C165.589 19.9877 168.769 21.3722 175.566 24.8434C181.196 27.7194 182.337 28.0947 182.337 27.0714ZM132.679 19.9466C132.679 19.843 132.594 19.7582 132.491 19.7582C132.387 19.7582 132.303 19.843 132.303 19.9466C132.303 20.0502 132.387 20.1349 132.491 20.1349C132.594 20.1349 132.679 20.0502 132.679 19.9466Z" fill="white"/>
</svg>
