<svg width="48" height="48" viewBox="0 0 48 48" fill="none" xmlns="http://www.w3.org/2000/svg">
<path d="M40 14L8 14C7.46957 14 6.96086 13.7893 6.58579 13.4142C6.21071 13.0391 6 12.5304 6 12V8C6 7.46957 6.21071 6.96086 6.58579 6.58578C6.96086 6.21071 7.46957 6 8 6H40C40.5304 6 41.0391 6.21071 41.4142 6.58578C41.7893 6.96086 42 7.46957 42 8V12C42 12.5304 41.7893 13.0391 41.4142 13.4142C41.0391 13.7893 40.5304 14 40 14ZM42 26V22C42 21.4696 41.7893 20.9609 41.4142 20.5858C41.0391 20.2107 40.5304 20 40 20L8 20C7.46957 20 6.96086 20.2107 6.58579 20.5858C6.21071 20.9609 6 21.4696 6 22V26C6 26.5304 6.21071 27.0391 6.58579 27.4142C6.96086 27.7893 7.46957 28 8 28H40C40.5304 28 41.0391 27.7893 41.4142 27.4142C41.7893 27.0391 42 26.5304 42 26ZM42 40V36C42 35.4696 41.7893 34.9609 41.4142 34.5858C41.0391 34.2107 40.5304 34 40 34H8C7.46957 34 6.96086 34.2107 6.58579 34.5858C6.21071 34.9609 6 35.4696 6 36V40C6 40.5304 6.21071 41.0391 6.58579 41.4142C6.96086 41.7893 7.46957 42 8 42H40C40.5304 42 41.0391 41.7893 41.4142 41.4142C41.7893 41.0391 42 40.5304 42 40Z" fill="#B3B3B3"/>
</svg>
