<svg width="48" height="48" viewBox="0 0 48 48" fill="none" xmlns="http://www.w3.org/2000/svg">
<!-- Border matching Arrangement style -->
<path d="M10 42C8.9 42 7.95833 41.6083 7.175 40.825C6.39167 40.0417 6 39.1 6 38V10C6 8.9 6.39167 7.95833 7.175 7.175C7.95833 6.39167 8.9 6 10 6H38C39.1 6 40.0417 6.39167 40.825 7.175C41.6083 7.95833 42 8.9 42 10V38C42 39.1 41.6083 40.0417 40.825 40.825C40.0417 41.6083 39.1 42 38 42H10ZM10 38H38V10H10V38Z" fill="#B3B3B3"/>
<!-- Fader 1 - left, knob high -->
<rect x="13" y="12" width="4" height="24" rx="1" fill="#B3B3B3"/>
<rect x="11" y="17" width="8" height="4" rx="1" fill="#B3B3B3"/>
<!-- Fader 2 - center, knob low -->
<rect x="22" y="12" width="4" height="24" rx="1" fill="#B3B3B3"/>
<rect x="20" y="28" width="8" height="4" rx="1" fill="#B3B3B3"/>
<!-- Fader 3 - right, knob mid -->
<rect x="31" y="12" width="4" height="24" rx="1" fill="#B3B3B3"/>
<rect x="29" y="22" width="8" height="4" rx="1" fill="#B3B3B3"/>
</svg>
