<svg width="51" height="51" viewBox="0 0 51 51" fill="none" xmlns="http://www.w3.org/2000/svg">
<path fill-rule="evenodd" clip-rule="evenodd" d="M40.3333 39.2706C41.7716 39.2706 42.9375 40.4365 42.9375 41.8748C42.9375 43.313 41.7716 44.4789 40.3333 44.4789C38.8951 44.4789 37.7292 43.313 37.7292 41.8748C37.7292 40.4365 38.8951 39.2706 40.3333 39.2706ZM46.0625 41.8748C46.0625 38.7106 43.4975 36.1456 40.3333 36.1456C37.7109 36.1456 35.5 37.9076 34.8198 40.3123H32C31.1371 40.3123 30.4375 41.0118 30.4375 41.8748C30.4375 42.7377 31.1371 43.4373 32 43.4373H34.8198C35.5 45.8419 37.7109 47.6039 40.3333 47.6039C43.4975 47.6039 46.0625 45.0389 46.0625 41.8748Z" fill="#B3B3B3" stroke="#B3B3B3"/>
<path fill-rule="evenodd" clip-rule="evenodd" d="M5.4375 8.54142C5.4375 11.7056 8.00254 14.2706 11.1667 14.2706C13.7891 14.2706 16 12.5086 16.6802 10.1039H19.5C20.3629 10.1039 21.0625 9.40437 21.0625 8.54142C21.0625 7.67848 20.3629 6.97892 19.5 6.97892H16.6802C16 4.57423 13.7891 2.81226 11.1667 2.81226C8.00254 2.81226 5.4375 5.37729 5.4375 8.54142ZM11.1667 11.1456C9.72843 11.1456 8.5625 9.97966 8.5625 8.54142C8.5625 7.10318 9.72843 5.93726 11.1667 5.93726C12.6049 5.93726 13.7708 7.10318 13.7708 8.54142C13.7708 9.97966 12.6049 11.1456 11.1667 11.1456Z" fill="#B3B3B3" stroke="#B3B3B3"/>
<path fill-rule="evenodd" clip-rule="evenodd" d="M24.1875 8.54138C24.1875 7.67844 24.8871 6.97888 25.75 6.97888H29.9167C30.7796 6.97888 31.4792 7.67844 31.4792 8.54138C31.4792 9.40433 30.7796 10.1039 29.9167 10.1039H25.75C24.8871 10.1039 24.1875 9.40433 24.1875 8.54138Z" fill="#B3B3B3" stroke="#B3B3B3"/>
<path fill-rule="evenodd" clip-rule="evenodd" d="M20.0208 41.8748C20.0208 41.0118 20.7204 40.3123 21.5833 40.3123H25.75C26.6129 40.3123 27.3125 41.0118 27.3125 41.8748C27.3125 42.7377 26.6129 43.4373 25.75 43.4373H21.5833C20.7204 43.4373 20.0208 42.7377 20.0208 41.8748Z" fill="#B3B3B3" stroke="#B3B3B3"/>
<path fill-rule="evenodd" clip-rule="evenodd" d="M18.675 37.7475C15.5203 41.0394 11.7545 43.4373 7 43.4373C6.13706 43.4373 5.4375 42.7377 5.4375 41.8748C5.4375 41.0118 6.13706 40.3123 7 40.3123C10.5788 40.3123 13.5839 38.5435 16.4188 35.5853C19.2802 32.5995 21.7982 28.5829 24.425 24.38L24.4784 24.2945C27.0437 20.19 29.7184 15.9103 32.825 12.6687C35.9797 9.37678 39.7455 6.97888 44.5 6.97888C45.3629 6.97888 46.0625 7.67844 46.0625 8.54138C46.0625 9.40433 45.3629 10.1039 44.5 10.1039C40.9212 10.1039 37.9161 11.8727 35.0812 14.8309C32.2198 17.8167 29.7018 21.8333 27.075 26.0362L27.0216 26.1217C24.4563 30.2261 21.7816 34.5059 18.675 37.7475Z" fill="#B3B3B3" stroke="#B3B3B3"/>
</svg>
