<svg width="48" height="48" viewBox="0 0 48 48" fill="none" xmlns="http://www.w3.org/2000/svg">
<path d="M46.5 33H40.5C39.672 33 39 33.672 39 34.5V36H36C30.21 36 25.5 31.29 25.5 25.5V22.5C25.5 15.057 19.443 9 12 9H9V7.5C9 6.672 8.328 6 7.5 6H1.5C0.672 6 0 6.672 0 7.5V13.5C0 14.328 0.672 15 1.5 15H7.5C8.328 15 9 14.328 9 13.5V12H12C17.79 12 22.5 16.71 22.5 22.5V25.5C22.5 32.943 28.557 39 36 39H39V40.5C39 41.328 39.672 42 40.5 42H46.5C47.328 42 48 41.328 48 40.5V34.5C48 33.672 47.328 33 46.5 33Z" fill="#B3B3B3"/>
</svg>
