<svg width="48" height="48" viewBox="0 0 48 48" fill="none" xmlns="http://www.w3.org/2000/svg">
<g clip-path="url(#clip0_44_240)">
<path d="M9.60001 40.8V33.15L34.5 8.25001C34.8667 7.88335 35.2667 7.61668 35.7 7.45001C36.1333 7.28335 36.5833 7.20001 37.05 7.20001C37.5167 7.20001 37.9667 7.28335 38.4 7.45001C38.8333 7.61668 39.2333 7.88335 39.6 8.25001L42.15 10.8C42.5167 11.1667 42.7833 11.5667 42.95 12C43.1167 12.4333 43.2 12.8833 43.2 13.35C43.2 13.8167 43.1167 14.2667 42.95 14.7C42.7833 15.1333 42.5167 15.5333 42.15 15.9L17.25 40.8H9.60001ZM13.2 37.2H15.75L34.75 18.2L33.5 16.9L32.2 15.65L13.2 34.65V37.2ZM33.5 16.9L32.2 15.65L34.75 18.2L33.5 16.9ZM28.2 40.8C30.2333 40.8 32.2417 40.2083 34.225 39.025C36.2083 37.8417 37.2 36.2333 37.2 34.2C37.2 33.0667 36.9417 32.125 36.425 31.375C35.9083 30.625 35.0833 29.9 33.95 29.2L31.25 31.85C32.0833 32.2833 32.6833 32.6583 33.05 32.975C33.4167 33.2917 33.6 33.7 33.6 34.2C33.6 34.9667 33.0083 35.6583 31.825 36.275C30.6417 36.8917 29.4333 37.2 28.2 37.2C27.7333 37.2 27.3167 37.3833 26.95 37.75C26.5833 38.1167 26.4 38.5333 26.4 39C26.4 39.5 26.5833 39.925 26.95 40.275C27.3167 40.625 27.7333 40.8 28.2 40.8ZM10.8 26.85L13.6 24.05C12.9 23.8833 12.2583 23.6167 11.675 23.25C11.0917 22.8833 10.8 22.5333 10.8 22.2C10.8 21.8667 11.0917 21.4917 11.675 21.075C12.2583 20.6583 13.3833 20.0333 15.05 19.2C17.6833 17.8667 19.4333 16.725 20.3 15.775C21.1667 14.825 21.6 13.7667 21.6 12.6C21.6 10.9 20.975 9.57501 19.725 8.62501C18.475 7.67501 16.8667 7.20001 14.9 7.20001C13.5333 7.20001 12.2333 7.42501 11 7.87501C9.76668 8.32501 8.86668 8.91668 8.30001 9.65001C8.00001 10.05 7.86668 10.4917 7.90001 10.975C7.93335 11.4583 8.15001 11.85 8.55001 12.15C8.91668 12.45 9.35835 12.575 9.87501 12.525C10.3917 12.475 10.8 12.2833 11.1 11.95C11.5333 11.5167 12.0833 11.2167 12.75 11.05C13.4167 10.8833 14.1333 10.8 14.9 10.8C15.9333 10.8 16.7083 10.975 17.225 11.325C17.7417 11.675 18 12.1 18 12.6C18 13.0333 17.725 13.475 17.175 13.925C16.625 14.375 15.3833 15.0667 13.45 16C11.1167 17.1333 9.49168 18.15 8.57501 19.05C7.65835 19.95 7.20001 21 7.20001 22.2C7.20001 23.1667 7.49168 24.05 8.07501 24.85C8.65835 25.65 9.56668 26.3167 10.8 26.85Z" fill="#B3B3B3"/>
</g>
<defs>
<clipPath id="clip0_44_240">
<rect width="48" height="48" fill="white"/>
</clipPath>
</defs>
</svg>
