<svg width="24" height="24" viewBox="0 0 24 24" fill="none" xmlns="http://www.w3.org/2000/svg">
<path fill-rule="evenodd" clip-rule="evenodd" d="M5.51758 4.05126C6.14265 3.06574 7.0442 2.25 8.28678 2.25C9.02083 2.25 9.62282 2.6242 10.0909 3.15212C10.5507 3.6708 10.9276 4.38478 11.2469 5.21261C11.8872 6.87279 12.3702 9.19206 12.7429 11.8977C13.1114 14.5722 13.576 16.7529 14.1525 18.2477C14.4417 18.9974 14.7405 19.5246 15.0315 19.8528C15.3143 20.1717 15.5383 20.25 15.7132 20.25C16.2082 20.25 16.7112 19.9407 17.2157 19.1453C17.7162 18.3563 18.1199 17.2298 18.431 15.9494C19.0506 13.3986 19.25 10.4635 19.25 9.011H20.75C20.75 10.5476 20.5436 13.607 19.8886 16.3034C19.5623 17.6466 19.1115 18.957 18.4824 19.9488C17.8573 20.9343 16.9558 21.75 15.7132 21.75C14.9792 21.75 14.3772 21.3758 13.9091 20.8479C13.4492 20.3293 13.0723 19.6153 12.753 18.7875C12.1127 17.1274 11.6297 14.8081 11.257 12.1025C10.8885 9.42798 10.4239 7.24719 9.84739 5.75236C9.55826 5.00269 9.25947 4.47543 8.9685 4.14724C8.68572 3.82829 8.46173 3.75 8.28678 3.75C7.79182 3.75 7.28877 4.05927 6.78428 4.85467C6.28379 5.64376 5.88009 6.77023 5.56905 8.0507C4.94944 10.6015 4.75 13.5366 4.75 14.989H3.25C3.25 13.4525 3.45642 10.3931 4.11143 7.69662C4.4377 6.35346 4.8885 5.04309 5.51758 4.05126Z" fill="#B3B3B3"/>
<path fill-rule="evenodd" clip-rule="evenodd" d="M6 12.7499H2V11.2499H6V12.7499Z" fill="#B3B3B3"/>
<path fill-rule="evenodd" clip-rule="evenodd" d="M10 12.75H8V11.25H10V12.75Z" fill="#B3B3B3"/>
<path fill-rule="evenodd" clip-rule="evenodd" d="M16 12.75H14V11.25H16V12.75Z" fill="#B3B3B3"/>
<path fill-rule="evenodd" clip-rule="evenodd" d="M22 12.75H18V11.25H22V12.75Z" fill="#B3B3B3"/>
</svg>
