<svg width="48" height="48" viewBox="0 0 48 48" fill="none" xmlns="http://www.w3.org/2000/svg">
<path d="M37.5 27.75C37.5 30.42 36.7082 33.0301 35.2248 35.2502C33.7414 37.4703 31.633 39.2006 29.1662 40.2224C26.6994 41.2442 23.985 41.5115 21.3663 40.9906C18.7475 40.4697 16.3421 39.1839 14.4541 37.2959C12.566 35.4079 11.2803 33.0025 10.7594 30.3837C10.2385 27.765 10.5058 25.0506 11.5276 22.5838C12.5494 20.117 14.2797 18.0086 16.4998 16.5252C18.7199 15.0418 21.33 14.25 24 14.25C27.0661 14.2551 30.0372 15.3144 32.415 17.25L22.935 26.715C22.7944 26.8544 22.6828 27.0203 22.6067 27.2031C22.5305 27.3859 22.4913 27.582 22.4913 27.78C22.4913 27.978 22.5305 28.1741 22.6067 28.3569C22.6828 28.5397 22.7944 28.7056 22.935 28.845C23.0744 28.9856 23.2403 29.0972 23.4231 29.1733C23.6059 29.2495 23.802 29.2887 24 29.2887C24.198 29.2887 24.3941 29.2495 24.5769 29.1733C24.7597 29.0972 24.9256 28.9856 25.065 28.845L34.5 19.335C36.4356 21.7128 37.4949 24.6839 37.5 27.75ZM4.755 30.75C5.14036 30.6871 5.486 30.4764 5.71848 30.1627C5.95096 29.849 6.05196 29.457 6 29.07C5.97724 28.6303 5.97724 28.1897 6 27.75C6 22.9761 7.89642 18.3977 11.2721 15.0221C14.6477 11.6464 19.2261 9.75 24 9.75C28.7739 9.75 33.3523 11.6464 36.7279 15.0221C40.1036 18.3977 42 22.9761 42 27.75C42.0228 28.2047 42.0228 28.6603 42 29.115C41.9815 29.3121 42.0021 29.511 42.0608 29.7001C42.1195 29.8892 42.215 30.0648 42.3419 30.2168C42.4688 30.3688 42.6246 30.4942 42.8002 30.5857C42.9758 30.6772 43.1677 30.7331 43.365 30.75C43.5621 30.7685 43.761 30.7479 43.9501 30.6892C44.1392 30.6305 44.3148 30.535 44.4668 30.4081C44.6188 30.2812 44.7442 30.1254 44.8357 29.9498C44.9272 29.7742 44.9831 29.5823 45 29.385C45 28.845 45 28.305 45 27.75C45 22.1805 42.7875 16.839 38.8492 12.9008C34.911 8.96249 29.5695 6.75 24 6.75C18.4305 6.75 13.089 8.96249 9.15076 12.9008C5.21249 16.839 3 22.1805 3 27.75C2.99716 28.3113 3.02722 28.8722 3.09 29.43C3.13421 29.7959 3.31157 30.1327 3.58822 30.3761C3.86488 30.6196 4.22148 30.7527 4.59 30.75H4.755Z" fill="#B3B3B3"/>
</svg>
