<svg width="56" height="56" viewBox="0 0 56 56" fill="none" xmlns="http://www.w3.org/2000/svg">
<path d="M12 0.5H44C50.3513 0.5 55.5 5.64873 55.5 12V44C55.5 50.3513 50.3513 55.5 44 55.5H12C5.64873 55.5 0.5 50.3513 0.5 44V12C0.500001 5.64873 5.64873 0.5 12 0.5Z" fill="#1A1A1A"/>
<path d="M12 0.5H44C50.3513 0.5 55.5 5.64873 55.5 12V44C55.5 50.3513 50.3513 55.5 44 55.5H12C5.64873 55.5 0.5 50.3513 0.5 44V12C0.500001 5.64873 5.64873 0.5 12 0.5Z" stroke="#444444"/>
<path d="M28 17C30.2593 17 32.0909 18.8468 32.0909 21.125C32.0909 21.9235 31.8612 22.666 31.4717 23.2976L37.5668 30.981C37.9876 30.8335 38.4385 30.75 38.9091 30.75C41.1684 30.75 43 32.5968 43 34.875C43 37.1532 41.1684 39 38.9091 39C36.6497 39 34.8182 37.1532 34.8182 34.875C34.8182 34.0764 35.0464 33.3327 35.4361 32.701L29.341 25.0177C28.9204 25.165 28.4703 25.25 28 25.25C27.5292 25.25 27.0786 25.1653 26.6577 25.0177L20.5626 32.701C20.9525 33.3328 21.1818 34.0761 21.1818 34.875C21.1818 37.1532 19.3503 39 17.0909 39C14.8316 39 13 37.1532 13 34.875C13 32.5968 14.8316 30.75 17.0909 30.75C17.5611 30.75 18.0114 30.8338 18.4319 30.981L24.527 23.2976C24.1377 22.6662 23.9091 21.9232 23.9091 21.125C23.9091 18.8468 25.7407 17 28 17Z" fill="#BCBCBC"/>
<path d="M26.2557 47L25.1193 42.6364H26.5142L27.1023 45.4318H27.1392L27.7699 42.6364H29.1307L29.7784 45.4119H29.8153L30.3864 42.6364H31.7812L30.642 47H29.1562L28.4744 44.4574H28.4261L27.7443 47H26.2557Z" fill="#B3B3B3"/>
</svg>
