<svg width="56" height="56" viewBox="0 0 56 56" fill="none" xmlns="http://www.w3.org/2000/svg">
<path d="M12 0.5H44C50.3513 0.5 55.5 5.64873 55.5 12V44C55.5 50.3513 50.3513 55.5 44 55.5H12C5.64873 55.5 0.5 50.3513 0.5 44V12C0.500001 5.64873 5.64873 0.5 12 0.5Z" fill="#1A1A1A"/>
<path d="M12 0.5H44C50.3513 0.5 55.5 5.64873 55.5 12V44C55.5 50.3513 50.3513 55.5 44 55.5H12C5.64873 55.5 0.5 50.3513 0.5 44V12C0.500001 5.64873 5.64873 0.5 12 0.5Z" stroke="#444444"/>
<g clip-path="url(#clip0_36_125)">
<path d="M28 37C23.035 37 19 32.965 19 28C19 26.485 19.375 25.045 20.05 23.8L17.86 21.61C16.69 23.455 16 25.645 16 28C16 34.63 21.37 40 28 40V44.5L34 38.5L28 32.5V37ZM28 16V11.5L22 17.5L28 23.5V19C32.965 19 37 23.035 37 28C37 29.515 36.625 30.955 35.95 32.2L38.14 34.39C39.31 32.545 40 30.355 40 28C40 21.37 34.63 16 28 16Z" fill="#BCBCBC" stroke="#BCBCBC" stroke-width="1.2" stroke-linejoin="round"/>
</g>
<defs>
<clipPath id="clip0_36_125">
<rect width="36" height="36" fill="white" transform="translate(10 10)"/>
</clipPath>
</defs>
</svg>
