<svg width="56" height="56" viewBox="0 0 56 56" fill="none" xmlns="http://www.w3.org/2000/svg">
<path d="M12 0.5H44C50.3513 0.500001 55.5 5.64873 55.5 12V44C55.5 50.3513 50.3513 55.5 44 55.5H12C5.64873 55.5 0.5 50.3513 0.5 44V12C0.500001 5.64873 5.64873 0.5 12 0.5Z" fill="#7777DD"/>
<path d="M12 0.5H44C50.3513 0.500001 55.5 5.64873 55.5 12V44C55.5 50.3513 50.3513 55.5 44 55.5H12C5.64873 55.5 0.5 50.3513 0.5 44V12C0.500001 5.64873 5.64873 0.5 12 0.5Z" stroke="#444444"/>
<path d="M16.2143 43C15.3512 43 14.5997 42.6801 13.9598 42.0402C13.3199 41.4003 13 40.6488 13 39.7857L13 16.2143C13 15.3304 13.3199 14.5737 13.9598 13.9442C14.5997 13.3147 15.3512 13 16.2143 13H39.7857C40.6696 13 41.4263 13.3147 42.0558 13.9442C42.6853 14.5737 43 15.3304 43 16.2143V39.7857C43 40.6488 42.6853 41.4003 42.0558 42.0402C41.4263 42.6801 40.6696 43 39.7857 43H16.2143ZM16.2143 39.7857H21.5714V32.2857H20.5C20.1964 32.2857 19.942 32.183 19.7366 31.9777C19.5312 31.7723 19.4286 31.5179 19.4286 31.2143V16.2143H16.2143V39.7857ZM34.4286 39.7857H39.7857V16.2143H36.5714V31.2143C36.5714 31.5179 36.4687 31.7723 36.2634 31.9777C36.058 32.183 35.8036 32.2857 35.5 32.2857H34.4286V39.7857ZM23.7143 39.7857H32.2857V32.2857H31.2143C30.9107 32.2857 30.6563 32.183 30.4509 31.9777C30.2455 31.7723 30.1429 31.5179 30.1429 31.2143V16.2143H25.8571V31.2143C25.8571 31.5179 25.7545 31.7723 25.5491 31.9777C25.3437 32.183 25.0893 32.2857 24.7857 32.2857H23.7143V39.7857Z" fill="white"/>
</svg>
