<svg width="48" height="48" viewBox="0 0 48 48" fill="none" xmlns="http://www.w3.org/2000/svg">
<path fill-rule="evenodd" clip-rule="evenodd" d="M43.7198 12.6551C43.7197 12.5566 43.7001 12.4591 43.6623 12.3682C43.6245 12.2772 43.5691 12.1946 43.4994 12.1251C43.4296 12.0555 43.3468 12.0004 43.2558 11.9629C43.1647 11.9253 43.0671 11.9061 42.9686 11.9063H32.5635C30.9066 11.9063 29.1079 13.1678 28.5443 14.7289L18.2623 30.1774C17.6995 31.7363 15.9 33 14.2446 33H5.76846C5.66978 32.9999 5.57204 33.0193 5.48086 33.057C5.38967 33.0947 5.30682 33.1501 5.23705 33.2198C5.16728 33.2896 5.11196 33.3725 5.07426 33.4637C5.03655 33.5549 5.01721 33.6526 5.01733 33.7513V35.4362C5.01719 35.6352 5.09606 35.8261 5.23663 35.967C5.37719 36.1079 5.56795 36.1872 5.76696 36.1875H16.7747C18.4313 36.1875 20.2211 34.9215 20.773 33.3583L30.9086 17.8292C31.4601 16.2668 33.2507 15 34.9071 15H42.9696C43.384 15 43.7196 14.6631 43.7196 14.2511L43.7198 12.6551Z" fill="#BCBCBC"/>
</svg>
