<svg width="48" height="48" viewBox="0 0 48 48" fill="none" xmlns="http://www.w3.org/2000/svg">
<path fill-rule="evenodd" clip-rule="evenodd" d="M4.55249 12.6551C4.55261 12.5566 4.57214 12.4591 4.60994 12.3682C4.64775 12.2773 4.7031 12.1947 4.77283 12.1251C4.84257 12.0556 4.92532 12.0005 5.01636 11.9629C5.1074 11.9254 5.20495 11.9061 5.30343 11.9063H15.7087C17.3657 11.9063 19.3948 13.0629 20.2397 14.4876L29.688 30.4187C30.5336 31.8444 32.5624 33 34.2174 33H42.6937C42.7924 32.9999 42.8901 33.0193 42.9813 33.057C43.0725 33.0948 43.1553 33.1501 43.225 33.2199C43.2948 33.2897 43.3501 33.3726 43.3878 33.4637C43.4255 33.5549 43.4448 33.6526 43.4447 33.7513V35.4362C43.4448 35.6352 43.3659 35.8261 43.2254 35.967C43.0848 36.1079 42.8941 36.1872 42.6951 36.1875H31.6873C30.0307 36.1875 28.0119 35.0258 27.1798 33.5948L17.8725 17.5928C17.04 16.1606 15.0214 15 13.365 15H5.30249C4.88812 15 4.55249 14.6631 4.55249 14.2511V12.6551Z" fill="#7777DD"/>
</svg>
