<svg width="56" height="56" viewBox="0 0 56 56" fill="none" xmlns="http://www.w3.org/2000/svg">
<path d="M12 0.5H44C50.3513 0.5 55.5 5.64873 55.5 12V44C55.5 50.3513 50.3513 55.5 44 55.5H12C5.64873 55.5 0.5 50.3513 0.5 44V12C0.500001 5.64873 5.64873 0.5 12 0.5Z" fill="#1A1A1A"/>
<path d="M12 0.5H44C50.3513 0.5 55.5 5.64873 55.5 12V44C55.5 50.3513 50.3513 55.5 44 55.5H12C5.64873 55.5 0.5 50.3513 0.5 44V12C0.500001 5.64873 5.64873 0.5 12 0.5Z" stroke="#444444"/>
<g clip-path="url(#clip0_36_117)">
<path d="M19 19H37V37H19V19Z" fill="#BCBCBC"/>
</g>
<defs>
<clipPath id="clip0_36_117">
<rect width="36" height="36" fill="white" transform="translate(10 10)"/>
</clipPath>
</defs>
</svg>
