<svg width="106" height="107" viewBox="0 0 106 107" fill="none" xmlns="http://www.w3.org/2000/svg">
<path d="M77.07 10H53V2.8C53 2.05739 52.705 1.3452 52.1799 0.820101C51.6548 0.294999 50.9426 0 50.2 0H45.8C45.0574 0 44.3452 0.294999 43.8201 0.820101C43.295 1.3452 43 2.05739 43 2.8V10H18.93C13.9103 10.0026 9.09689 11.9979 5.5474 15.5474C1.99791 19.0969 0.00264964 23.9103 0 28.93V40.21C0 52.6195 4.92965 64.5207 13.7045 73.2955C22.4793 82.0704 34.3805 87 46.79 87H50.2C50.9426 87 51.6548 86.705 52.1799 86.1799C52.705 85.6548 53 84.9426 53 84.2V79.8C53 79.0574 52.705 78.3452 52.1799 77.8201C51.6548 77.295 50.9426 77 50.2 77H46.79C37.0327 77 27.675 73.1239 20.7755 66.2245C13.8761 59.325 10 49.9673 10 40.21V28.93C10 26.5616 10.9408 24.2902 12.6155 22.6155C14.2902 20.9408 16.5616 20 18.93 20H77.07C79.4384 20 81.7098 20.9408 83.3845 22.6155C85.0592 24.2902 86 26.5616 86 28.93V41C85.9937 43.7436 85.658 46.4765 85 49.14C84.8256 49.8263 84.9187 50.5532 85.2603 51.1734C85.602 51.7936 86.1667 52.2607 86.84 52.48L91.04 53.85C91.4028 53.9704 91.7865 54.0149 92.1672 53.9809C92.5479 53.9469 92.9176 53.835 93.2533 53.6521C93.589 53.4693 93.8835 53.2194 94.1186 52.918C94.3537 52.6166 94.5244 52.2701 94.62 51.9C95.5294 48.3378 95.9929 44.6764 96 41V28.93C95.9974 23.9103 94.0021 19.0969 90.4526 15.5474C86.9031 11.9979 82.0897 10.0026 77.07 10Z" fill="#B3B3B3"/>
<path d="M32 52C36.4183 52 40 48.4183 40 44C40 39.5817 36.4183 36 32 36C27.5817 36 24 39.5817 24 44C24 48.4183 27.5817 52 32 52Z" fill="#B3B3B3"/>
<path d="M64 52C68.4183 52 72 48.4183 72 44C72 39.5817 68.4183 36 64 36C59.5817 36 56 39.5817 56 44C56 48.4183 59.5817 52 64 52Z" fill="#B3B3B3"/>
<path d="M95.73 80.8L104.79 84.37C104.977 84.4437 105.137 84.5718 105.249 84.7377C105.362 84.9035 105.422 85.0994 105.422 85.3C105.422 85.5006 105.362 85.6965 105.249 85.8623C105.137 86.0282 104.977 86.1563 104.79 86.23L95.73 89.8C94.1262 90.4341 92.6696 91.3905 91.4501 92.61C90.2306 93.8295 89.2742 95.2862 88.64 96.89L85.07 105.89C84.9963 106.077 84.8682 106.237 84.7024 106.349C84.5365 106.462 84.3406 106.522 84.14 106.522C83.9395 106.522 83.7436 106.462 83.5777 106.349C83.4119 106.237 83.2838 106.077 83.21 105.89L79.64 96.89C79.0075 95.2853 78.0516 93.8278 76.8319 92.6081C75.6123 91.3884 74.1548 90.4326 72.55 89.8L63.55 86.23C63.3635 86.1563 63.2035 86.0282 63.0907 85.8623C62.9779 85.6965 62.9176 85.5006 62.9176 85.3C62.9176 85.0994 62.9779 84.9035 63.0907 84.7377C63.2035 84.5718 63.3635 84.4437 63.55 84.37L72.55 80.8C74.1548 80.1674 75.6123 79.2116 76.8319 77.9919C78.0516 76.7722 79.0075 75.3147 79.64 73.71L83.21 64.71C83.2838 64.5235 83.4119 64.3634 83.5777 64.2506C83.7436 64.1379 83.9395 64.0776 84.14 64.0776C84.3406 64.0776 84.5365 64.1379 84.7024 64.2506C84.8682 64.3634 84.9963 64.5235 85.07 64.71L88.64 73.71C89.2742 75.3138 90.2306 76.7705 91.4501 77.99C92.6696 79.2095 94.1262 80.1659 95.73 80.8Z" fill="#B3B3B3"/>
</svg>
