<svg width="24" height="24" viewBox="0 0 24 24" fill="none" xmlns="http://www.w3.org/2000/svg">
<path d="M5 21C4.45 21 3.97917 20.8042 3.5875 20.4125C3.19583 20.0208 3 19.55 3 19V9C3 7.33333 3.58333 5.91667 4.75 4.75C5.91667 3.58333 7.33333 3 9 3H15C16.6667 3 18.0833 3.58333 19.25 4.75C20.4167 5.91667 21 7.33333 21 9V19C21 19.55 20.8042 20.0208 20.4125 20.4125C20.0208 20.8042 19.55 21 19 21H5ZM5 19H19V9C19 7.9 18.6083 6.95833 17.825 6.175C17.0417 5.39167 16.1 5 15 5H9C7.9 5 6.95833 5.39167 6.175 6.175C5.39167 6.95833 5 7.9 5 9V19ZM7.5875 11.4125C7.19583 11.0208 7 10.55 7 10C7 9.45 7.19583 8.97917 7.5875 8.5875C7.97917 8.19583 8.45 8 9 8C9.55 8 10.0208 8.19583 10.4125 8.5875C10.8042 8.97917 11 9.45 11 10C11 10.55 10.8042 11.0208 10.4125 11.4125C10.0208 11.8042 9.55 12 9 12C8.45 12 7.97917 11.8042 7.5875 11.4125ZM13.5875 11.4125C13.1958 11.0208 13 10.55 13 10C13 9.45 13.1958 8.97917 13.5875 8.5875C13.9792 8.19583 14.45 8 15 8C15.55 8 16.0208 8.19583 16.4125 8.5875C16.8042 8.97917 17 9.45 17 10C17 10.55 16.8042 11.0208 16.4125 11.4125C16.0208 11.8042 15.55 12 15 12C14.45 12 13.9792 11.8042 13.5875 11.4125ZM7 19V17C7 16.45 7.19583 15.9792 7.5875 15.5875C7.97917 15.1958 8.45 15 9 15H15C15.55 15 16.0208 15.1958 16.4125 15.5875C16.8042 15.9792 17 16.45 17 17V19H15V17H13V19H11V17H9V19H7Z" fill="#E3E3E3"/>
</svg>
