<svg width="512" height="512" viewBox="0 0 512 512" fill="none" xmlns="http://www.w3.org/2000/svg">
<rect x="10.5" y="10.5" width="491" height="491" rx="39.5" stroke="#B3B3B3" stroke-width="21"/>
<path d="M118.991 207.768C124.55 207.781 129.877 210.436 133.803 215.151C137.728 219.865 139.931 226.254 139.927 232.912V279.552C139.927 286.212 137.718 292.6 133.786 297.309C129.855 302.018 124.523 304.663 118.963 304.663C113.403 304.663 108.071 302.018 104.14 297.309C100.208 292.6 98 286.212 98 279.552V232.912C98.0086 226.247 100.223 219.857 104.158 215.144C108.093 210.431 113.427 207.778 118.991 207.768Z" fill="#B3B3B3"/>
<path d="M118.991 207.768C124.55 207.781 129.877 210.436 133.803 215.151C137.728 219.865 139.931 226.254 139.927 232.912V279.552C139.927 286.212 137.718 292.6 133.786 297.309C129.855 302.018 124.523 304.663 118.963 304.663C113.403 304.663 108.071 302.018 104.14 297.309C100.208 292.6 98 286.212 98 279.552V232.912C98.0086 226.247 100.223 219.857 104.158 215.144C108.093 210.431 113.427 207.778 118.991 207.768Z" stroke="#B3B3B3"/>
<path d="M187.494 168.361C193.053 168.374 198.38 171.029 202.306 175.743C206.231 180.458 208.434 186.847 208.43 193.505V318.959C208.43 325.619 206.22 332.006 202.289 336.715C198.358 341.424 193.026 344.07 187.466 344.07C181.906 344.07 176.574 341.424 172.643 336.715C168.711 332.006 166.503 325.619 166.503 318.959V193.505C166.512 186.84 168.726 180.45 172.661 175.737C176.596 171.023 181.93 168.371 187.494 168.361Z" fill="#B3B3B3"/>
<path d="M187.494 168.361C193.053 168.374 198.38 171.029 202.306 175.743C206.231 180.458 208.434 186.847 208.43 193.505V318.959C208.43 325.619 206.22 332.006 202.289 336.715C198.358 341.424 193.026 344.07 187.466 344.07C181.906 344.07 176.574 341.424 172.643 336.715C168.711 332.006 166.503 325.619 166.503 318.959V193.505C166.512 186.84 168.726 180.45 172.661 175.737C176.596 171.023 181.93 168.371 187.494 168.361Z" stroke="#B3B3B3"/>
<path d="M255.997 74C261.561 74.0105 266.896 76.6628 270.831 81.376C274.765 86.0892 276.979 92.4791 276.988 99.1445V413.32C276.999 416.631 276.464 419.911 275.415 422.974C274.365 426.036 272.82 428.819 270.87 431.165C268.919 433.511 266.602 435.373 264.049 436.643C261.497 437.912 258.76 438.565 255.997 438.565C253.233 438.565 250.496 437.913 247.944 436.643C245.392 435.373 243.074 433.511 241.124 431.165C239.173 428.82 237.629 426.036 236.58 422.974C235.53 419.911 234.994 416.631 235.005 413.32V99.1445C235.014 92.479 237.229 86.0892 241.164 81.376C245.098 76.6629 250.432 74.0105 255.997 74Z" fill="#B3B3B3"/>
<path d="M255.997 74C261.561 74.0105 266.896 76.6628 270.831 81.376C274.765 86.0892 276.979 92.4791 276.988 99.1445V413.32C276.999 416.631 276.464 419.911 275.415 422.974C274.365 426.036 272.82 428.819 270.87 431.165C268.919 433.511 266.602 435.373 264.049 436.643C261.497 437.912 258.76 438.565 255.997 438.565C253.233 438.565 250.496 437.913 247.944 436.643C245.392 435.373 243.074 433.511 241.124 431.165C239.173 428.82 237.629 426.036 236.58 422.974C235.53 419.911 234.994 416.631 235.005 413.32V99.1445C235.014 92.479 237.229 86.0892 241.164 81.376C245.098 76.6629 250.432 74.0105 255.997 74Z" stroke="#B3B3B3"/>
<path d="M324.505 120.505C330.069 120.515 335.404 123.167 339.339 127.88C343.274 132.594 345.488 138.984 345.497 145.649V366.816C345.497 373.476 343.288 379.863 339.356 384.572C335.425 389.281 330.093 391.926 324.533 391.926C318.974 391.926 313.641 389.281 309.71 384.572C305.779 379.863 303.57 373.476 303.57 366.816V145.649C303.566 138.991 305.769 132.602 309.694 127.887C313.62 123.173 318.946 120.518 324.505 120.505Z" fill="#B3B3B3"/>
<path d="M324.505 120.505C330.069 120.515 335.404 123.167 339.339 127.88C343.274 132.594 345.488 138.984 345.497 145.649V366.816C345.497 373.476 343.288 379.863 339.356 384.572C335.425 389.281 330.093 391.926 324.533 391.926C318.974 391.926 313.641 389.281 309.71 384.572C305.779 379.863 303.57 373.476 303.57 366.816V145.649C303.566 138.991 305.769 132.602 309.694 127.887C313.62 123.173 318.946 120.518 324.505 120.505Z" stroke="#B3B3B3"/>
<path d="M393.008 161.534C398.573 161.544 403.907 164.196 407.842 168.91C411.777 173.623 413.992 180.013 414 186.678V325.787C414 332.446 411.791 338.833 407.86 343.542C403.929 348.252 398.596 350.897 393.037 350.897C387.477 350.897 382.145 348.252 378.213 343.542C374.282 338.833 372.074 332.446 372.074 325.787V186.678C372.07 180.02 374.272 173.631 378.198 168.916C382.123 164.202 387.45 161.547 393.008 161.534Z" fill="#B3B3B3"/>
<path d="M393.008 161.534C398.573 161.544 403.907 164.196 407.842 168.91C411.777 173.623 413.992 180.013 414 186.678V325.787C414 332.446 411.791 338.833 407.86 343.542C403.929 348.252 398.596 350.897 393.037 350.897C387.477 350.897 382.145 348.252 378.213 343.542C374.282 338.833 372.074 332.446 372.074 325.787V186.678C372.07 180.02 374.272 173.631 378.198 168.916C382.123 164.202 387.45 161.547 393.008 161.534Z" stroke="#B3B3B3"/>
</svg>
