<svg width="512" height="512" viewBox="0 0 512 512" fill="none" xmlns="http://www.w3.org/2000/svg">
<rect x="10.5" y="10.5" width="491" height="491" rx="39.5" stroke="#B3B3B3" stroke-width="21"/>
<path d="M146.573 366C121.595 366 100.422 355.345 83.0531 334.034C65.6844 312.723 57 286.751 57 256.117C57 225.483 65.6844 199.472 83.0531 178.083C100.425 156.694 121.595 146 146.565 146C156.606 146 166.244 148.122 175.48 152.366C184.715 156.61 193.055 162.806 200.499 170.954L233.169 207.111L210.838 231.556L181.063 198.454C176.376 193.361 171.153 189.457 165.393 186.741C159.634 184.025 153.587 182.667 147.251 182.667C130.547 182.667 116.292 189.812 104.487 204.101C92.679 218.391 86.775 235.706 86.775 256.046C86.775 276.386 92.679 293.77 104.487 308.199C116.292 322.628 130.547 329.843 147.251 329.843C153.587 329.843 159.634 328.485 165.393 325.769C171.153 323.052 176.376 319.148 181.063 314.056L310.501 170.954C317.945 163.145 326.282 157.034 335.512 152.62C344.74 148.207 354.375 146 364.419 146C389.394 146 410.567 156.686 427.939 178.058C445.313 199.43 454 225.41 454 256C454 286.895 445.258 312.952 427.773 334.171C410.289 355.39 388.98 366 363.848 366C353.84 366 344.239 363.878 335.045 359.634C325.85 355.39 317.531 349.194 310.088 341.046L277.004 304.38L300.163 280.444L329.938 313.546C334.624 318.639 339.847 322.543 345.607 325.259C351.366 327.975 357.413 329.333 363.749 329.333C380.453 329.333 394.708 322.188 406.513 307.899C418.321 293.609 424.225 276.294 424.225 255.954C424.225 235.614 418.321 218.23 406.513 203.801C394.708 189.372 380.453 182.157 363.749 182.157C357.413 182.157 351.366 183.515 345.607 186.231C339.847 188.948 334.624 192.852 329.938 197.944L200.598 341.006C193.088 349.181 184.718 355.39 175.488 359.634C166.258 363.878 156.619 366 146.573 366Z" fill="#B3B3B3"/>
</svg>
