<svg width="512" height="512" viewBox="0 0 512 512" fill="none" xmlns="http://www.w3.org/2000/svg">
<rect x="16.5" y="16.5" width="479" height="479" rx="33.5" fill="#5588AA"/>
<rect x="16.5" y="16.5" width="479" height="479" rx="33.5" stroke="#5588AA" stroke-width="33"/>
<path d="M157.573 366C132.595 366 111.422 355.345 94.0531 334.034C76.6844 312.723 68 286.751 68 256.117C68 225.483 76.6844 199.472 94.0531 178.083C111.425 156.694 132.595 146 157.565 146C167.606 146 177.244 148.122 186.48 152.366C195.715 156.61 204.055 162.806 211.499 170.954L244.169 207.111L221.838 231.556L192.063 198.454C187.376 193.361 182.153 189.457 176.393 186.741C170.634 184.025 164.587 182.667 158.251 182.667C141.547 182.667 127.292 189.812 115.487 204.101C103.679 218.391 97.775 235.706 97.775 256.046C97.775 276.386 103.679 293.77 115.487 308.199C127.292 322.628 141.547 329.843 158.251 329.843C164.587 329.843 170.634 328.485 176.393 325.769C182.153 323.052 187.376 319.148 192.063 314.056L321.501 170.954C328.945 163.145 337.282 157.034 346.512 152.62C355.74 148.207 365.375 146 375.419 146C400.394 146 421.567 156.686 438.939 178.058C456.313 199.43 465 225.41 465 256C465 286.895 456.258 312.952 438.773 334.171C421.289 355.39 399.98 366 374.848 366C364.84 366 355.239 363.878 346.045 359.634C336.85 355.39 328.531 349.194 321.088 341.046L288.004 304.38L311.163 280.444L340.938 313.546C345.624 318.639 350.847 322.543 356.607 325.259C362.366 327.975 368.413 329.333 374.749 329.333C391.453 329.333 405.708 322.188 417.513 307.899C429.321 293.609 435.225 276.294 435.225 255.954C435.225 235.614 429.321 218.23 417.513 203.801C405.708 189.372 391.453 182.157 374.749 182.157C368.413 182.157 362.366 183.515 356.607 186.231C350.847 188.948 345.624 192.852 340.938 197.944L211.598 341.006C204.088 349.181 195.718 355.39 186.488 359.634C177.258 363.878 167.619 366 157.573 366Z" fill="#B3B3B3"/>
</svg>
