<svg width="512" height="512" viewBox="0 0 512 512" fill="none" xmlns="http://www.w3.org/2000/svg">
<rect x="10.5" y="10.5" width="491" height="491" rx="39.5" stroke="#B3B3B3" stroke-width="21"/>
<path d="M200.876 148.983V316.685C191.118 307.98 178.259 302.68 164.183 302.68C133.755 302.68 109 327.436 109 357.864C109 388.293 133.755 413.048 164.183 413.048C194.573 413.048 219.303 388.355 219.366 357.979H219.367V223.204L383.509 181.595V272.168C373.751 263.463 360.892 258.163 346.817 258.163C316.388 258.163 291.633 282.918 291.633 313.346C291.633 343.774 316.388 368.53 346.817 368.53C377.245 368.53 402 343.774 402 313.346V98L200.876 148.983Z" fill="#B3B3B3"/>
</svg>
