<svg width="48" height="48" viewBox="0 0 48 48" fill="none" xmlns="http://www.w3.org/2000/svg">
<path d="M24 4C19.6553 4.11009 15.5315 5.93815 12.5323 9.08352C9.53315 12.2289 7.9033 16.435 7.99998 20.78C7.99998 29.56 21.14 42.06 22.64 43.46C23.0078 43.807 23.4943 44.0002 24 44.0002C24.5056 44.0002 24.9922 43.807 25.36 43.46C26.86 42.06 40 29.56 40 20.78C40.0967 16.435 38.4668 12.2289 35.4676 9.08352C32.4685 5.93815 28.3447 4.11009 24 4ZM24 14C25.1867 14 26.3467 14.3519 27.3334 15.0112C28.3201 15.6705 29.0891 16.6075 29.5433 17.7039C29.9974 18.8003 30.1162 20.0067 29.8847 21.1705C29.6532 22.3344 29.0817 23.4035 28.2426 24.2426C27.4035 25.0818 26.3344 25.6532 25.1705 25.8847C24.0066 26.1162 22.8002 25.9974 21.7039 25.5433C20.6075 25.0892 19.6705 24.3201 19.0112 23.3334C18.3519 22.3467 18 21.1867 18 20C18.0047 18.4102 18.6384 16.8868 19.7626 15.7626C20.8868 14.6384 22.4101 14.0047 24 14Z" fill="#B3B3B3"/>
</svg>
