<svg width="24" height="24" viewBox="0 0 24 24" fill="none" xmlns="http://www.w3.org/2000/svg">
  <!-- Circle ring (polarity/phase symbol) -->
  <path d="M12 3C7.032 3 3 7.032 3 12C3 16.968 7.032 21 12 21C16.968 21 21 16.968 21 12C21 7.032 16.968 3 12 3ZM12 5C15.86 5 19 8.14 19 12C19 15.86 15.86 19 12 19C8.14 19 5 15.86 5 12C5 8.14 8.14 5 12 5Z" fill="#E6E6E6"/>
  <!-- Diagonal slash -->
  <rect x="4.93" y="4.22" width="2" height="20" rx="1" transform="rotate(-45 4.93 4.22)" fill="#E6E6E6"/>
</svg>
